<svg width="654.88" height="338.48" viewBox="0 0 491.16 253.86" class="displayed_equation" xmlns="http://www.w3.org/2000/svg">
  <path d="M 2334.53125 149.576563 L 281.757813 149.576563 L 281.757813 2202.35" transform="matrix(.1 0 0 -.1 0 253.86)" fill="none" stroke-width="7.97" stroke-linejoin="round" stroke="#000" stroke-miterlimit="10" />
  <path d="M 237.316406 238.902344 L 231.847656 236.835938 L 233.652344 238.902344 L 231.847656 240.964844" />
  <path d="M 2373.164063 149.576563 L 2318.476563 170.240625 L 2336.523438 149.576563 L 2318.476563 128.951563 Z M 2373.164063 149.576563" transform="matrix(.1 0 0 -.1 0 253.86)" fill="none" stroke-width="7.97" stroke="#000" stroke-miterlimit="10" />
  <path d="M 28.175781 29.761719 L 26.109375 35.230469 L 28.175781 33.425781 L 30.238281 35.230469" />
  <path d="M 281.757813 2240.982813 L 261.09375 2186.295313 L 281.757813 2204.342188 L 302.382813 2186.295313 Z M 281.757813 2240.982813" transform="matrix(.1 0 0 -.1 0 253.86)" fill="none" stroke-width="7.97" stroke="#000" stroke-miterlimit="10" />
  <path d="M39.660156 20.03125L39.660156 20.730469C39.640625 21.429688 39.636719 22.429688 39.585938 23.664063L39.070313 23.761719C39 21.140625 38.921875 18.96875 38.765625 17.242188L38.757813 17.097656C38.738281 16.847656 38.816406 16.671875 38.9375 16.53125 39.042969 16.367188 39.242188 16.296875 39.496094 16.246094 39.476563 16.265625 39.519531 16.335938 39.53125 16.378906 39.53125 16.410156 39.664063 16.816406 39.898438 17.574219L39.59375 17.832031 39.601563 17.886719C39.640625 18.679688 39.660156 19.402344 39.660156 20.03125zM39.265625 15.699219zM39.371094 24.339844L39.371094 24.339844M35.589844 23.761719C35.492188 23.761719 35.492188 23.730469 35.492188 23.664063L35.492188 23C35.460938 22.925781 35.523438 22.90625 35.589844 22.90625 36.011719 22.890625 36.457031 22.808594 36.832031 22.613281 36.667969 20.609375 36.488281 18.714844 36.265625 16.867188 36.460938 16.648438 36.734375 16.441406 37.015625 16.246094 37.046875 17.019531 37.113281 18.101563 37.195313 19.410156 37.234375 20.488281 37.304688 21.453125 37.316406 22.25 37.3125 22.347656 37.28125 22.546875 37.203125 22.757813 37.128906 22.933594 37.035156 23.171875 36.921875 23.371094 36.78125 23.628906 36.34375 23.761719 35.589844 23.761719zM36.484375 15.699219zM36.945313 24.089844zM36.945313 24.339844L36.945313 24.339844" />
  <path d="M 35.324219 21.261719 C 35.316406 21.8125 35.0625 22.277344 34.539063 22.65625 C 34.84375 22.789063 35.226563 22.90625 35.640625 22.90625 C 35.691406 22.890625 35.734375 22.9375 35.734375 23 L 35.734375 23.664063 C 35.722656 23.726563 35.703125 23.761719 35.640625 23.761719 C 35.292969 23.761719 34.972656 23.6875 34.644531 23.542969 C 34.300781 23.371094 34.0625 23.222656 33.886719 23.015625 C 33.347656 23.234375 32.671875 23.4375 31.765625 23.566406 C 30.84375 23.695313 29.777344 23.761719 28.5 23.761719 C 28.4375 23.761719 28.40625 23.730469 28.40625 23.664063 L 28.40625 23 C 28.40625 22.925781 28.4375 22.90625 28.5 22.90625 L 29.425781 22.894531 L 29.460938 22.894531 C 29.679688 22.554688 29.9375 22.253906 30.179688 21.953125 L 29.851563 20.023438 C 29.734375 19.515625 29.664063 18.996094 29.582031 18.40625 C 29.476563 17.804688 29.460938 17.390625 29.457031 17.125 C 29.4375 16.859375 29.515625 16.6875 29.625 16.546875 C 29.730469 16.375 29.929688 16.304688 30.195313 16.246094 C 30.234375 16.488281 30.332031 16.753906 30.398438 16.945313 L 30.59375 17.574219 L 30.300781 17.824219 L 30.304688 17.878906 C 30.316406 18.015625 30.351563 18.375 30.40625 18.9375 C 30.460938 19.472656 30.503906 19.863281 30.53125 20.03125 C 30.585938 20.769531 30.632813 21.257813 30.640625 21.429688 C 31.152344 20.828125 31.664063 20.40625 32.132813 20.097656 C 32.585938 19.773438 33.003906 19.628906 33.34375 19.628906 C 33.542969 19.605469 33.816406 19.714844 34.125 19.886719 C 34.429688 20.050781 34.714844 20.28125 34.957031 20.550781 C 35.183594 20.789063 35.324219 21.054688 35.324219 21.261719 Z M 34.8125 21.753906 C 34.589844 21.347656 34.332031 21.085938 34.027344 20.875 C 33.714844 20.660156 33.402344 20.558594 33.070313 20.558594 C 32.710938 20.558594 32.300781 20.765625 31.777344 21.171875 C 31.230469 21.578125 30.691406 22.152344 30.085938 22.886719 C 30.796875 22.847656 31.464844 22.804688 32 22.734375 C 32.535156 22.636719 32.976563 22.566406 33.324219 22.441406 C 33.664063 22.285156 34.164063 22.085938 34.8125 21.753906 Z M 33.234375 18.753906 Z M 32.503906 24.089844 Z M 32.503906 24.339844 L 32.503906 24.339844" />
  <path d="M28.726563 23L28.726563 23.664063C28.714844 23.726563 28.695313 23.761719 28.632813 23.761719 28.179688 23.761719 27.824219 23.675781 27.535156 23.5 27.234375 23.3125 27.082031 23.089844 27.046875 22.785156 26.910156 21.820313 26.796875 20.355469 26.664063 18.363281L26.554688 16.867188C26.742188 16.65625 27.011719 16.449219 27.308594 16.246094 27.355469 17.355469 27.398438 18.992188 27.429688 21.074219L27.46875 22.617188C27.792969 22.789063 28.207031 22.90625 28.632813 22.90625 28.683594 22.890625 28.726563 22.9375 28.726563 23zM26.96875 15.699219zM27.640625 24.339844L27.640625 24.339844M24.597656 22.304688C24.527344 21.984375 24.511719 21.703125 24.445313 21.425781 24.203125 21.597656 23.964844 21.769531 23.6875 21.878906 23.378906 21.980469 23.132813 22.042969 22.855469 22.042969 22.507813 22.015625 22.257813 21.917969 22.054688 21.671875 21.828125 21.417969 21.742188 21.109375 21.742188 20.734375 21.730469 20.136719 21.882813 19.65625 22.15625 19.222656 22.414063 18.761719 22.757813 18.566406 23.132813 18.566406 23.507813 18.5625 23.863281 18.703125 24.160156 18.980469 24.441406 19.25 24.695313 19.652344 24.871094 20.160156 25.023438 20.671875 25.132813 21.222656 25.132813 21.8125 25.121094 22.050781 25.003906 22.445313 24.742188 22.949219 24.273438 23.199219 23.78125 23.4375 23.21875 23.566406 22.652344 23.695313 21.921875 23.761719 21.011719 23.761719 20.9375 23.761719 20.90625 23.726563 20.90625 23.65625L20.90625 23.011719C20.90625 22.925781 20.941406 22.90625 21.011719 22.90625 21.8125 22.890625 22.5 22.859375 23.054688 22.761719 23.59375 22.664063 24.128906 22.511719 24.597656 22.304688zM22.964844 19.515625C22.714844 19.496094 22.546875 19.617188 22.398438 19.824219 22.214844 20.007813 22.171875 20.261719 22.171875 20.515625 22.148438 20.730469 22.246094 20.921875 22.398438 21.03125 22.515625 21.117188 22.789063 21.195313 23.121094 21.195313 23.480469 21.183594 23.878906 21.101563 24.304688 20.910156 24.15625 20.441406 23.96875 20.113281 23.742188 19.875 23.5 19.632813 23.253906 19.515625 22.964844 19.515625zM23.199219 18.019531zM23.539063 24.089844zM23.539063 24.339844zM23.027344 17.261719C22.882813 17.476563 22.671875 17.734375 22.363281 18.027344 22.007813 17.734375 21.78125 17.53125 21.621094 17.34375 21.808594 17.132813 22.058594 16.910156 22.34375 16.589844 22.414063 16.671875 22.65625 16.90625 23.027344 17.261719zM24.714844 17.105469C24.570313 17.3125 24.351563 17.582031 24.042969 17.867188 23.710938 17.613281 23.480469 17.390625 23.304688 17.179688 23.382813 17.101563 23.625 16.855469 24.027344 16.425781 24.105469 16.5 24.34375 16.746094 24.714844 17.105469zM23.207031 18.136719zM23.152344 16.152344zM23.207031 18.027344L23.207031 18.027344" />
  <path d="M 19.023438 23.320313 C 18.605469 23.265625 18.335938 23.25 18.179688 23.214844 C 18 23.160156 17.867188 23.132813 17.703125 23.066406 C 17.535156 23.003906 17.367188 22.925781 17.191406 22.824219 C 16.984375 22.703125 16.882813 22.632813 16.792969 22.539063 C 16.671875 22.421875 16.660156 22.363281 16.660156 22.289063 C 16.640625 22.179688 16.710938 22.019531 16.8125 21.78125 C 16.90625 21.53125 16.992188 21.363281 17.058594 21.25 C 17.152344 21.011719 17.417969 20.800781 17.800781 20.53125 C 18.179688 20.234375 18.585938 20.035156 19.011719 19.867188 L 18.972656 19.558594 C 19.207031 19.328125 19.503906 19.132813 19.789063 18.972656 L 19.890625 22.613281 C 20.199219 22.789063 20.621094 22.90625 21.058594 22.90625 C 21.101563 22.890625 21.148438 22.9375 21.148438 23 L 21.148438 23.664063 C 21.132813 23.726563 21.117188 23.761719 21.058594 23.761719 C 20.585938 23.761719 20.238281 23.675781 19.957031 23.503906 C 19.65625 23.320313 19.515625 23.097656 19.472656 22.785156 L 19.433594 22.550781 Z M 17.207031 21.769531 C 17.503906 22.023438 17.839844 22.195313 18.203125 22.277344 C 18.566406 22.355469 18.96875 22.40625 19.410156 22.414063 L 19.121094 20.609375 L 19.117188 20.589844 C 18.21875 20.886719 17.585938 21.289063 17.207031 21.769531 Z M 18.492188 18.425781 Z M 19.320313 24.089844 Z M 19.101563 24.449219 Z M 18.328125 17.664063 C 18.183594 17.878906 17.96875 18.132813 17.664063 18.429688 C 17.308594 18.136719 17.082031 17.929688 16.921875 17.742188 C 17.109375 17.535156 17.359375 17.3125 17.640625 16.988281 C 17.714844 17.070313 17.957031 17.304688 18.328125 17.664063 Z M 20.015625 17.503906 C 19.871094 17.710938 19.652344 17.980469 19.34375 18.269531 C 19.011719 18.015625 18.78125 17.789063 18.605469 17.578125 C 18.683594 17.5 18.925781 17.257813 19.328125 16.824219 C 19.40625 16.898438 19.644531 17.148438 20.015625 17.503906 Z M 18.507813 18.539063 Z M 18.453125 16.550781 Z M 18.507813 18.429688 L 18.507813 18.429688" />
  <path d="M 356.835938 299.771875 L 807.421875 299.771875" transform="matrix(.1 0 0 -.1 0 253.86)" fill="none" stroke-width="7.97" stroke-linejoin="round" stroke="#000" stroke-miterlimit="10" />
  <path d="M55.167969 219.710938L55.167969 208.441406 55.101563 208.441406C54.453125 209.773438 53.175781 210.902344 52.140625 211.722656L52.410156 212.003906C52.867188 211.683594 53.296875 211.425781 53.726563 211.011719 53.851563 210.890625 53.957031 210.808594 54.0625 210.808594 54.199219 210.808594 54.253906 210.929688 54.253906 211.171875L54.253906 219.710938 55.167969 219.710938M64.007813 216.160156C63.554688 216.472656 63.109375 216.738281 62.691406 217.15625 62.558594 217.277344 62.460938 217.34375 62.355469 217.34375 62.222656 217.34375 62.167969 217.238281 62.167969 216.980469L62.167969 208.441406 61.253906 208.441406 61.253906 219.710938 61.320313 219.710938C61.953125 218.394531 63.242188 217.265625 64.265625 216.429688L64.007813 216.160156" />
  <path d="M90.628906 228.058594L90.628906 227.683594C89.390625 227.683594 88.894531 227.441406 88.894531 226.78125L88.894531 219.464844 88.503906 219.464844 85.894531 220.207031 85.894531 220.648438C86.3125 220.515625 87 220.433594 87.265625 220.433594 87.601563 220.433594 87.710938 220.621094 87.710938 221.09375L87.710938 226.78125C87.710938 227.457031 87.242188 227.683594 85.976563 227.683594L85.976563 228.058594 90.628906 228.058594M92.023438 225.855469L92.066406 228.167969 92.347656 228.167969 92.628906 227.859375 92.65625 227.859375C93.007813 228.007813 93.410156 228.207031 94.1875 228.207031 95.398438 228.207031 96.449219 227.722656 96.449219 226.460938 96.449219 225.464844 95.789063 224.964844 94.566406 224.320313 93.4375 223.742188 92.992188 223.40625 92.992188 222.882813 92.992188 222.277344 93.464844 221.996094 94.082031 221.996094 94.902344 221.996094 95.398438 222.386719 95.695313 223.660156L96.058594 223.660156 96.019531 221.605469 95.75 221.605469 95.523438 221.886719 95.507813 221.886719C95.171875 221.726563 94.769531 221.539063 94.09375 221.539063 92.9375 221.539063 92.039063 222.128906 92.039063 223.230469 92.039063 224.226563 92.589844 224.699219 93.8125 225.316406 95.0625 225.933594 95.320313 226.191406 95.320313 226.824219 95.320313 227.457031 94.835938 227.710938 94.164063 227.710938 93.167969 227.710938 92.65625 227.238281 92.375 225.855469L92.023438 225.855469" fill="#7c24e7" />
  <path d="M 356.835938 600.1625 L 807.421875 600.1625" transform="matrix(.1 0 0 -.1 0 253.86)" fill="none" stroke-width="7.97" stroke-linejoin="round" stroke="#000" stroke-miterlimit="10" />
  <path d="M55.167969 189.710938L55.167969 178.441406 55.101563 178.441406C54.453125 179.773438 53.175781 180.902344 52.140625 181.722656L52.410156 182.003906C52.867188 181.683594 53.296875 181.425781 53.726563 181.011719 53.851563 180.890625 53.957031 180.808594 54.0625 180.808594 54.199219 180.808594 54.253906 180.929688 54.253906 181.171875L54.253906 189.710938 55.167969 189.710938M64.007813 186.160156C63.554688 186.472656 63.109375 186.738281 62.691406 187.15625 62.558594 187.277344 62.460938 187.34375 62.355469 187.34375 62.222656 187.34375 62.167969 187.238281 62.167969 186.980469L62.167969 178.441406 61.253906 178.441406 61.253906 189.710938 61.320313 189.710938C61.953125 188.394531 63.242188 187.265625 64.265625 186.429688L64.007813 186.160156" />
  <path d="M91.140625 195.910156L90.75 195.910156C90.441406 196.714844 90.265625 196.996094 89.554688 196.996094L87.683594 196.996094 86.742188 197.039063 86.742188 196.972656 88.515625 195.289063C89.945313 193.851563 90.710938 192.921875 90.710938 191.726563 90.710938 190.3125 89.648438 189.398438 88.128906 189.398438 86.824219 189.398438 85.910156 190.152344 85.492188 191.457031L85.8125 191.589844C86.3125 190.582031 86.902344 190.273438 87.777344 190.273438 88.8125 190.273438 89.460938 190.917969 89.460938 191.925781 89.460938 193.339844 88.785156 194.1875 87.453125 195.558594L85.410156 197.601563 85.410156 198.058594 90.710938 198.058594 91.140625 195.910156M92.023438 195.855469L92.066406 198.167969 92.347656 198.167969 92.628906 197.859375 92.65625 197.859375C93.007813 198.007813 93.410156 198.207031 94.1875 198.207031 95.398438 198.207031 96.449219 197.722656 96.449219 196.460938 96.449219 195.464844 95.789063 194.964844 94.566406 194.320313 93.4375 193.742188 92.992188 193.40625 92.992188 192.882813 92.992188 192.277344 93.464844 191.996094 94.082031 191.996094 94.902344 191.996094 95.398438 192.386719 95.695313 193.660156L96.058594 193.660156 96.019531 191.605469 95.75 191.605469 95.523438 191.886719 95.507813 191.886719C95.171875 191.726563 94.769531 191.539063 94.09375 191.539063 92.9375 191.539063 92.039063 192.128906 92.039063 193.230469 92.039063 194.226563 92.589844 194.699219 93.8125 195.316406 95.0625 195.933594 95.320313 196.191406 95.320313 196.824219 95.320313 197.457031 94.835938 197.710938 94.164063 197.710938 93.167969 197.710938 92.65625 197.238281 92.375 195.855469L92.023438 195.855469" fill="#7c24e7" />
  <path d="M 356.835938 1050.7875 L 807.421875 1050.7875" transform="matrix(.1 0 0 -.1 0 253.86)" fill="none" stroke-width="7.97" stroke-linejoin="round" stroke="#000" stroke-miterlimit="10" />
  <path d="M 58.667969 144.613281 L 58.667969 133.339844 L 58.601563 133.339844 C 57.953125 134.671875 56.675781 135.800781 55.640625 136.621094 L 55.910156 136.90625 C 56.367188 136.582031 56.796875 136.328125 57.226563 135.910156 C 57.351563 135.789063 57.457031 135.707031 57.5625 135.707031 C 57.699219 135.707031 57.753906 135.828125 57.753906 136.070313 L 57.753906 144.613281 L 58.667969 144.613281" />
  <path d="M86.054688 146.363281C86.515625 145.648438 87.011719 145.273438 87.820313 145.273438 88.652344 145.273438 89.191406 145.730469 89.191406 146.523438 89.191406 147.613281 88.234375 148.351563 87.320313 148.351563L87.066406 148.351563 87.066406 148.863281 87.335938 148.863281C88.625 148.863281 89.769531 149.65625 89.769531 150.855469 89.769531 152.171875 88.949219 152.5625 88.101563 152.5625 87.777344 152.5625 87.589844 152.507813 87.011719 152.214844 86.539063 151.972656 86.433594 151.902344 86.21875 151.902344 85.867188 151.902344 85.695313 152.214844 85.695313 152.492188 85.695313 152.84375 85.988281 153.234375 87.199219 153.234375 89.164063 153.234375 90.871094 152.292969 90.871094 150.449219 90.871094 149.253906 89.96875 148.539063 88.894531 148.203125L88.894531 148.164063C89.742188 147.628906 90.347656 147.128906 90.347656 146.199219 90.347656 145.179688 89.554688 144.398438 88.179688 144.398438 87.078125 144.398438 86.246094 145.019531 85.746094 146.1875L86.054688 146.363281M92.023438 150.855469L92.066406 153.167969 92.347656 153.167969 92.628906 152.859375 92.65625 152.859375C93.007813 153.007813 93.410156 153.207031 94.1875 153.207031 95.398438 153.207031 96.449219 152.722656 96.449219 151.460938 96.449219 150.464844 95.789063 149.964844 94.566406 149.320313 93.4375 148.742188 92.992188 148.40625 92.992188 147.882813 92.992188 147.277344 93.464844 146.992188 94.082031 146.992188 94.902344 146.992188 95.398438 147.386719 95.695313 148.660156L96.058594 148.660156 96.019531 146.605469 95.75 146.605469 95.523438 146.886719 95.507813 146.886719C95.171875 146.726563 94.769531 146.539063 94.09375 146.539063 92.9375 146.539063 92.039063 147.128906 92.039063 148.230469 92.039063 149.226563 92.589844 149.695313 93.8125 150.316406 95.0625 150.933594 95.320313 151.191406 95.320313 151.820313 95.320313 152.453125 94.835938 152.710938 94.164063 152.710938 93.167969 152.710938 92.65625 152.238281 92.375 150.855469L92.023438 150.855469" fill="#7c24e7" />
  <path d="M 356.835938 1651.56875 L 807.421875 1651.56875" transform="matrix(.1 0 0 -.1 0 253.86)" fill="none" stroke-width="7.97" stroke-linejoin="round" stroke="#000" stroke-miterlimit="10" />
  <path d="M91.367188 90.835938L91.367188 89.90625 89.996094 89.90625 89.996094 84.285156 89.175781 84.285156 85.074219 89.988281 85.074219 90.835938 88.800781 90.835938 88.800781 92.960938 89.996094 92.960938 89.996094 90.835938zM88.800781 89.90625L85.8125 89.90625 85.8125 89.855469 88.746094 85.753906 88.800781 85.753906 88.800781 89.90625M92.023438 90.753906L92.066406 93.066406 92.347656 93.066406 92.628906 92.757813 92.65625 92.757813C93.007813 92.90625 93.410156 93.109375 94.1875 93.109375 95.398438 93.109375 96.449219 92.625 96.449219 91.359375 96.449219 90.363281 95.789063 89.867188 94.566406 89.222656 93.4375 88.644531 92.992188 88.308594 92.992188 87.78125 92.992188 87.175781 93.464844 86.894531 94.082031 86.894531 94.902344 86.894531 95.398438 87.285156 95.695313 88.5625L96.058594 88.5625 96.019531 86.503906 95.75 86.503906 95.523438 86.785156 95.507813 86.785156C95.171875 86.625 94.769531 86.4375 94.09375 86.4375 92.9375 86.4375 92.039063 87.027344 92.039063 88.132813 92.039063 89.128906 92.589844 89.597656 93.8125 90.214844 95.0625 90.835938 95.320313 91.089844 95.320313 91.722656 95.320313 92.355469 94.835938 92.609375 94.164063 92.609375 93.167969 92.609375 92.65625 92.140625 92.375 90.753906L92.023438 90.753906" fill="#7c24e7" />
  <path d="M 1032.734375 900.592188 L 1182.929688 900.592188" transform="matrix(.1 0 0 -.1 0 253.86)" fill="none" stroke-width="7.97" stroke-linejoin="round" stroke="#000" stroke-miterlimit="10" />
  <path d="M107.667969 159.710938L107.667969 148.441406 107.601563 148.441406C106.953125 149.773438 105.675781 150.902344 104.640625 151.722656L104.910156 152.003906C105.367188 151.683594 105.796875 151.425781 106.226563 151.011719 106.351563 150.890625 106.457031 150.808594 106.5625 150.808594 106.699219 150.808594 106.753906 150.929688 106.753906 151.171875L106.753906 159.710938 107.667969 159.710938M116.609375 156.160156C116.152344 156.472656 115.710938 156.738281 115.292969 157.15625 115.15625 157.277344 115.0625 157.34375 114.957031 157.34375 114.820313 157.34375 114.765625 157.238281 114.765625 156.980469L114.765625 148.441406 113.851563 148.441406 113.851563 159.710938 113.921875 159.710938C114.550781 158.394531 115.84375 157.265625 116.867188 156.429688L116.609375 156.160156" />
  <path d="M 1243.007813 900.592188 L 1393.203125 900.592188" transform="matrix(.1 0 0 -.1 0 253.86)" fill="none" stroke-width="7.97" stroke-linejoin="round" stroke="#000" stroke-miterlimit="10" />
  <path d="M128.765625 159.710938L128.765625 148.441406 128.699219 148.441406C128.054688 149.773438 126.777344 150.902344 125.742188 151.722656L126.011719 152.003906C126.46875 151.683594 126.898438 151.425781 127.328125 151.011719 127.449219 150.890625 127.554688 150.808594 127.664063 150.808594 127.796875 150.808594 127.851563 150.929688 127.851563 151.171875L127.851563 159.710938 128.765625 159.710938M137.609375 156.160156C137.152344 156.472656 136.710938 156.738281 136.292969 157.15625 136.15625 157.277344 136.0625 157.34375 135.957031 157.34375 135.820313 157.34375 135.765625 157.238281 135.765625 156.980469L135.765625 148.441406 134.851563 148.441406 134.851563 159.710938 134.921875 159.710938C135.550781 158.394531 136.84375 157.265625 137.867188 156.429688L137.609375 156.160156" />
  <path d="M 1453.28125 900.592188 L 1603.476563 900.592188" transform="matrix(.1 0 0 -.1 0 253.86)" fill="none" stroke-width="7.97" stroke-linejoin="round" stroke="#000" stroke-miterlimit="10" />
  <path d="M149.765625 159.710938L149.765625 148.441406 149.699219 148.441406C149.054688 149.773438 147.777344 150.902344 146.742188 151.722656L147.011719 152.003906C147.46875 151.683594 147.898438 151.425781 148.328125 151.011719 148.449219 150.890625 148.554688 150.808594 148.664063 150.808594 148.796875 150.808594 148.851563 150.929688 148.851563 151.171875L148.851563 159.710938 149.765625 159.710938M158.609375 156.160156C158.152344 156.472656 157.710938 156.738281 157.292969 157.15625 157.15625 157.277344 157.0625 157.34375 156.957031 157.34375 156.820313 157.34375 156.765625 157.238281 156.765625 156.980469L156.765625 148.441406 155.851563 148.441406 155.851563 159.710938 155.921875 159.710938C156.550781 158.394531 157.84375 157.265625 158.867188 156.429688L158.609375 156.160156" />
  <path d="M170.742188 164.507813L170.351563 164.507813C170.039063 165.316406 169.867188 165.597656 169.152344 165.597656L167.285156 165.597656 166.34375 165.636719 166.34375 165.570313 168.117188 163.890625C169.542969 162.449219 170.308594 161.523438 170.308594 160.324219 170.308594 158.914063 169.246094 158 167.726563 158 166.421875 158 165.507813 158.753906 165.09375 160.058594L165.414063 160.191406C165.914063 159.183594 166.503906 158.871094 167.378906 158.871094 168.414063 158.871094 169.058594 159.519531 169.058594 160.527344 169.058594 161.941406 168.386719 162.785156 167.054688 164.160156L165.011719 166.203125 165.011719 166.660156 170.308594 166.660156 170.742188 164.507813M173.46875 160.175781L173.132813 160.175781 171.4375 160.554688 171.4375 160.945313C171.4375 160.945313 171.691406 160.917969 171.867188 160.917969 172.3125 160.917969 172.378906 161.09375 172.378906 161.605469L172.378906 168.261719C172.378906 169.011719 172.242188 169.242188 171.394531 169.242188L171.394531 169.621094 174.796875 169.621094 174.796875 169.230469C173.75 169.230469 173.492188 169.054688 173.492188 168.179688L173.492188 166.417969 173.546875 166.417969C173.9375 166.6875 174.394531 166.792969 174.90625 166.792969 176.519531 166.792969 177.851563 165.4375 177.851563 163.152344 177.851563 161.386719 176.921875 160.136719 175.59375 160.136719 174.796875 160.136719 174.152344 160.554688 173.507813 161.308594L173.46875 161.308594zM173.492188 161.871094C173.75 161.535156 174.328125 161.050781 175.039063 161.050781 176.035156 161.050781 176.628906 161.832031 176.628906 163.527344 176.628906 165.394531 175.914063 166.269531 174.972656 166.269531 174.21875 166.269531 173.75 165.664063 173.492188 165.382813L173.492188 161.871094" fill="#7c24e7" />
  <path d="M1032.734375 1351.178125L1182.929688 1351.178125M1243.007813 1351.178125L1393.203125 1351.178125M1453.28125 1351.178125L1603.476563 1351.178125" transform="matrix(.1 0 0 -.1 0 253.86)" fill="none" stroke-width="7.97" stroke-linejoin="round" stroke="#000" stroke-miterlimit="10" />
  <path d="M165.65625 114.863281C166.113281 114.148438 166.609375 113.773438 167.417969 113.773438 168.253906 113.773438 168.789063 114.230469 168.789063 115.023438 168.789063 116.113281 167.835938 116.851563 166.921875 116.851563L166.664063 116.851563 166.664063 117.363281 166.933594 117.363281C168.226563 117.363281 169.367188 118.15625 169.367188 119.355469 169.367188 120.671875 168.546875 121.0625 167.703125 121.0625 167.378906 121.0625 167.1875 121.007813 166.609375 120.714844 166.140625 120.472656 166.03125 120.402344 165.820313 120.402344 165.46875 120.402344 165.292969 120.714844 165.292969 120.992188 165.292969 121.34375 165.589844 121.734375 166.800781 121.734375 168.761719 121.734375 170.472656 120.792969 170.472656 118.949219 170.472656 117.753906 169.570313 117.039063 168.492188 116.703125L168.492188 116.664063C169.34375 116.128906 169.945313 115.628906 169.945313 114.699219 169.945313 113.679688 169.152344 112.898438 167.78125 112.898438 166.679688 112.898438 165.84375 113.519531 165.347656 114.6875L165.65625 114.863281M173.46875 115.078125L173.132813 115.078125 171.4375 115.453125 171.4375 115.84375C171.4375 115.84375 171.691406 115.816406 171.867188 115.816406 172.3125 115.816406 172.378906 115.992188 172.378906 116.503906L172.378906 123.160156C172.378906 123.914063 172.242188 124.144531 171.394531 124.144531L171.394531 124.519531 174.796875 124.519531 174.796875 124.128906C173.75 124.128906 173.492188 123.953125 173.492188 123.078125L173.492188 121.316406 173.546875 121.316406C173.9375 121.585938 174.394531 121.695313 174.90625 121.695313 176.519531 121.695313 177.851563 120.335938 177.851563 118.050781 177.851563 116.289063 176.921875 115.039063 175.59375 115.039063 174.796875 115.039063 174.152344 115.453125 173.507813 116.207031L173.46875 116.207031zM173.492188 116.773438C173.75 116.4375 174.328125 115.953125 175.039063 115.953125 176.035156 115.953125 176.628906 116.730469 176.628906 118.425781 176.628906 120.296875 175.914063 121.167969 174.972656 121.167969 174.21875 121.167969 173.75 120.566406 173.492188 120.28125L173.492188 116.773438" fill="#7c24e7" />
  <path d="M1032.734375 1951.959375L1182.929688 1951.959375M1243.007813 1951.959375L1393.203125 1951.959375M1453.28125 1951.959375L1603.476563 1951.959375" transform="matrix(.1 0 0 -.1 0 253.86)" fill="none" stroke-width="7.97" stroke-linejoin="round" stroke="#000" stroke-miterlimit="10" />
  <path d="M170.96875 59.433594L170.96875 58.507813 169.597656 58.507813 169.597656 52.886719 168.777344 52.886719 164.675781 58.589844 164.675781 59.433594 168.398438 59.433594 168.398438 61.558594 169.597656 61.558594 169.597656 59.433594zM168.398438 58.507813L165.414063 58.507813 165.414063 58.453125 168.347656 54.351563 168.398438 54.351563 168.398438 58.507813M173.46875 55.078125L173.132813 55.078125 171.4375 55.453125 171.4375 55.84375C171.4375 55.84375 171.691406 55.816406 171.867188 55.816406 172.3125 55.816406 172.378906 55.992188 172.378906 56.503906L172.378906 63.160156C172.378906 63.914063 172.242188 64.144531 171.394531 64.144531L171.394531 64.519531 174.796875 64.519531 174.796875 64.128906C173.75 64.128906 173.492188 63.953125 173.492188 63.078125L173.492188 61.316406 173.546875 61.316406C173.9375 61.585938 174.394531 61.695313 174.90625 61.695313 176.519531 61.695313 177.851563 60.335938 177.851563 58.050781 177.851563 56.289063 176.921875 55.039063 175.59375 55.039063 174.796875 55.039063 174.152344 55.453125 173.507813 56.207031L173.46875 56.207031zM173.492188 56.773438C173.75 56.4375 174.328125 55.953125 175.039063 55.953125 176.035156 55.953125 176.628906 56.730469 176.628906 58.425781 176.628906 60.296875 175.914063 61.167969 174.972656 61.167969 174.21875 61.167969 173.75 60.566406 173.492188 60.28125L173.492188 56.773438" fill="#7c24e7" />
  <path d="M 1453.28125 1801.764063 L 1903.867188 1801.764063" transform="matrix(.1 0 0 -.1 0 253.86)" fill="none" stroke-width="7.97" stroke-linejoin="round" stroke="#000" stroke-dasharray="29.8883,29.8883" stroke-miterlimit="10" />
  <path d="M195.65625 71.664063C196.113281 70.949219 196.609375 70.570313 197.417969 70.570313 198.253906 70.570313 198.789063 71.03125 198.789063 71.824219 198.789063 72.914063 197.835938 73.652344 196.921875 73.652344L196.664063 73.652344 196.664063 74.164063 196.933594 74.164063C198.226563 74.164063 199.367188 74.957031 199.367188 76.152344 199.367188 77.472656 198.546875 77.863281 197.703125 77.863281 197.378906 77.863281 197.1875 77.808594 196.609375 77.511719 196.140625 77.269531 196.03125 77.203125 195.820313 77.203125 195.46875 77.203125 195.292969 77.511719 195.292969 77.792969 195.292969 78.144531 195.589844 78.535156 196.800781 78.535156 198.761719 78.535156 200.472656 77.59375 200.472656 75.75 200.472656 74.554688 199.570313 73.839844 198.492188 73.503906L198.492188 73.464844C199.34375 72.925781 199.945313 72.429688 199.945313 71.5 199.945313 70.480469 199.152344 69.699219 197.78125 69.699219 196.679688 69.699219 195.84375 70.316406 195.347656 71.488281L195.65625 71.664063M208.113281 78.117188L208.113281 77.753906 207.828125 77.753906C207.332031 77.753906 207.15625 77.621094 207.15625 76.921875L207.15625 68.863281 206.796875 68.863281 205.101563 69.335938 205.101563 69.714844C205.101563 69.714844 205.328125 69.683594 205.449219 69.683594 205.976563 69.683594 206.042969 69.808594 206.042969 70.398438L206.042969 72.160156C205.625 71.933594 205.179688 71.839844 204.738281 71.839844 203.042969 71.839844 201.644531 73.195313 201.644531 75.414063 201.644531 77.136719 202.421875 78.46875 203.945313 78.46875 204.832031 78.46875 205.515625 77.957031 206.027344 77.5L206.082031 77.5 206.082031 78.425781 206.390625 78.425781zM206.042969 77.003906C205.570313 77.324219 205.207031 77.5 204.574219 77.5 203.433594 77.5 202.8125 76.746094 202.8125 74.890625 202.8125 73.195313 203.578125 72.375 204.710938 72.375 205.542969 72.375 205.933594 72.898438 206.042969 73.449219L206.042969 77.003906" fill="#7c24e7" />
  <path d="M 4737.65625 149.576563 L 2684.882813 149.576563 L 2684.882813 2202.35" transform="matrix(.1 0 0 -.1 0 253.86)" fill="none" stroke-width="7.97" stroke-linejoin="round" stroke="#000" stroke-miterlimit="10" />
  <path d="M 477.628906 238.902344 L 472.160156 236.835938 L 473.964844 238.902344 L 472.160156 240.964844" />
  <path d="M 4776.289063 149.576563 L 4721.601563 170.240625 L 4739.648438 149.576563 L 4721.601563 128.951563 Z M 4776.289063 149.576563" transform="matrix(.1 0 0 -.1 0 253.86)" fill="none" stroke-width="7.97" stroke="#000" stroke-miterlimit="10" />
  <path d="M 268.488281 29.761719 L 266.425781 35.230469 L 268.488281 33.425781 L 270.554688 35.230469" />
  <path d="M 2684.882813 2240.982813 L 2664.257813 2186.295313 L 2684.882813 2204.342188 L 2705.546875 2186.295313 Z M 2684.882813 2240.982813" transform="matrix(.1 0 0 -.1 0 253.86)" fill="none" stroke-width="7.97" stroke="#000" stroke-miterlimit="10" />
  <path d="M280.0625 20.03125L280.0625 20.730469C280.039063 21.429688 280.035156 22.429688 279.984375 23.664063L279.46875 23.761719C279.398438 21.140625 279.320313 18.96875 279.164063 17.242188L279.160156 17.097656C279.140625 16.847656 279.21875 16.671875 279.335938 16.53125 279.441406 16.367188 279.640625 16.296875 279.898438 16.246094 279.875 16.265625 279.917969 16.335938 279.929688 16.378906 279.929688 16.410156 280.0625 16.816406 280.296875 17.574219L279.996094 17.832031 280.003906 17.886719C280.039063 18.679688 280.0625 19.402344 280.0625 20.03125zM279.667969 15.699219zM279.773438 24.339844L279.773438 24.339844M275.890625 23.761719C275.792969 23.761719 275.789063 23.730469 275.789063 23.664063L275.789063 23C275.761719 22.925781 275.824219 22.90625 275.890625 22.90625 276.3125 22.890625 276.753906 22.808594 277.132813 22.613281 276.96875 20.609375 276.789063 18.714844 276.566406 16.867188 276.761719 16.648438 277.03125 16.441406 277.316406 16.246094 277.347656 17.019531 277.414063 18.101563 277.496094 19.410156 277.535156 20.488281 277.605469 21.453125 277.617188 22.25 277.609375 22.347656 277.578125 22.546875 277.503906 22.757813 277.429688 22.933594 277.335938 23.171875 277.222656 23.371094 277.082031 23.628906 276.644531 23.761719 275.890625 23.761719zM276.785156 15.699219zM277.246094 24.089844zM277.246094 24.339844L277.246094 24.339844" />
  <path d="M 275.625 21.261719 C 275.617188 21.8125 275.363281 22.277344 274.839844 22.65625 C 275.144531 22.789063 275.527344 22.90625 275.941406 22.90625 C 275.992188 22.890625 276.035156 22.9375 276.035156 23 L 276.035156 23.664063 C 276.023438 23.726563 276.003906 23.761719 275.941406 23.761719 C 275.59375 23.761719 275.273438 23.6875 274.945313 23.542969 C 274.601563 23.371094 274.363281 23.222656 274.1875 23.015625 C 273.648438 23.234375 272.96875 23.4375 272.066406 23.566406 C 271.144531 23.695313 270.074219 23.761719 268.800781 23.761719 C 268.738281 23.761719 268.707031 23.730469 268.707031 23.664063 L 268.707031 23 C 268.703125 22.925781 268.738281 22.90625 268.800781 22.90625 L 269.726563 22.894531 L 269.761719 22.894531 C 269.980469 22.554688 270.238281 22.253906 270.480469 21.953125 L 270.152344 20.023438 C 270.035156 19.515625 269.964844 18.996094 269.882813 18.40625 C 269.773438 17.804688 269.761719 17.390625 269.757813 17.125 C 269.738281 16.859375 269.8125 16.6875 269.925781 16.546875 C 270.03125 16.375 270.230469 16.304688 270.496094 16.246094 C 270.53125 16.488281 270.632813 16.753906 270.699219 16.945313 L 270.894531 17.574219 L 270.601563 17.824219 L 270.605469 17.878906 C 270.613281 18.015625 270.648438 18.375 270.707031 18.9375 C 270.761719 19.472656 270.804688 19.863281 270.828125 20.03125 C 270.886719 20.769531 270.933594 21.257813 270.9375 21.429688 C 271.453125 20.828125 271.964844 20.40625 272.429688 20.097656 C 272.886719 19.773438 273.300781 19.628906 273.644531 19.628906 C 273.839844 19.605469 274.117188 19.714844 274.425781 19.886719 C 274.726563 20.050781 275.015625 20.28125 275.257813 20.550781 C 275.484375 20.789063 275.625 21.054688 275.625 21.261719 Z M 275.109375 21.753906 C 274.886719 21.347656 274.628906 21.085938 274.328125 20.875 C 274.011719 20.660156 273.703125 20.558594 273.371094 20.558594 C 273.007813 20.558594 272.601563 20.765625 272.078125 21.171875 C 271.527344 21.578125 270.992188 22.152344 270.386719 22.886719 C 271.097656 22.847656 271.765625 22.804688 272.300781 22.734375 C 272.835938 22.636719 273.277344 22.566406 273.621094 22.441406 C 273.964844 22.285156 274.464844 22.085938 275.109375 21.753906 Z M 273.535156 18.753906 Z M 272.804688 24.089844 Z M 272.804688 24.339844 L 272.804688 24.339844" />
  <path d="M269.023438 23L269.023438 23.664063C269.015625 23.726563 268.992188 23.761719 268.929688 23.761719 268.480469 23.761719 268.125 23.675781 267.835938 23.5 267.53125 23.3125 267.382813 23.089844 267.34375 22.785156 267.210938 21.820313 267.097656 20.355469 266.964844 18.363281L266.851563 16.867188C267.042969 16.65625 267.3125 16.449219 267.609375 16.246094 267.65625 17.355469 267.699219 18.992188 267.726563 21.074219L267.765625 22.617188C268.09375 22.789063 268.503906 22.90625 268.929688 22.90625 268.984375 22.890625 269.023438 22.9375 269.023438 23zM267.269531 15.699219zM267.941406 24.339844L267.941406 24.339844M264.898438 22.304688C264.828125 21.984375 264.8125 21.703125 264.746094 21.425781 264.503906 21.597656 264.265625 21.769531 263.988281 21.878906 263.679688 21.980469 263.433594 22.042969 263.15625 22.042969 262.808594 22.015625 262.558594 21.917969 262.351563 21.671875 262.128906 21.417969 262.042969 21.109375 262.042969 20.734375 262.027344 20.136719 262.179688 19.65625 262.457031 19.222656 262.714844 18.761719 263.058594 18.566406 263.433594 18.566406 263.808594 18.5625 264.160156 18.703125 264.460938 18.980469 264.738281 19.25 264.996094 19.652344 265.171875 20.160156 265.324219 20.671875 265.433594 21.222656 265.433594 21.8125 265.421875 22.050781 265.304688 22.445313 265.039063 22.949219 264.574219 23.199219 264.082031 23.4375 263.519531 23.566406 262.953125 23.695313 262.222656 23.761719 261.3125 23.761719 261.238281 23.761719 261.207031 23.726563 261.207031 23.65625L261.207031 23.011719C261.203125 22.925781 261.242188 22.90625 261.3125 22.90625 262.113281 22.890625 262.800781 22.859375 263.355469 22.761719 263.894531 22.664063 264.429688 22.511719 264.898438 22.304688zM263.265625 19.515625C263.015625 19.496094 262.847656 19.617188 262.695313 19.824219 262.511719 20.007813 262.46875 20.261719 262.46875 20.515625 262.445313 20.730469 262.546875 20.921875 262.695313 21.03125 262.816406 21.117188 263.089844 21.195313 263.421875 21.195313 263.777344 21.183594 264.179688 21.101563 264.601563 20.910156 264.457031 20.441406 264.269531 20.113281 264.042969 19.875 263.800781 19.632813 263.554688 19.515625 263.265625 19.515625zM263.496094 18.019531zM263.839844 24.089844zM263.839844 24.339844zM263.328125 17.261719C263.183594 17.476563 262.96875 17.734375 262.664063 18.027344 262.308594 17.734375 262.078125 17.53125 261.921875 17.34375 262.109375 17.132813 262.359375 16.910156 262.640625 16.589844 262.714844 16.671875 262.957031 16.90625 263.328125 17.261719zM265.015625 17.105469C264.871094 17.3125 264.652344 17.582031 264.34375 17.867188 264.011719 17.613281 263.78125 17.390625 263.605469 17.179688 263.683594 17.101563 263.925781 16.855469 264.328125 16.425781 264.40625 16.5 264.644531 16.746094 265.015625 17.105469zM263.507813 18.136719zM263.453125 16.152344zM263.507813 18.027344L263.507813 18.027344" />
  <path d="M 259.421875 23.320313 C 259.007813 23.265625 258.734375 23.25 258.582031 23.214844 C 258.402344 23.160156 258.269531 23.132813 258.101563 23.066406 C 257.933594 23.003906 257.765625 22.925781 257.589844 22.824219 C 257.386719 22.703125 257.28125 22.632813 257.195313 22.539063 C 257.074219 22.421875 257.0625 22.363281 257.0625 22.289063 C 257.039063 22.179688 257.109375 22.019531 257.210938 21.78125 C 257.308594 21.53125 257.394531 21.363281 257.460938 21.25 C 257.554688 21.011719 257.820313 20.800781 258.199219 20.53125 C 258.582031 20.234375 258.984375 20.035156 259.414063 19.867188 L 259.371094 19.558594 C 259.609375 19.328125 259.90625 19.132813 260.1875 18.972656 L 260.292969 22.613281 C 260.601563 22.789063 261.019531 22.90625 261.457031 22.90625 C 261.5 22.890625 261.550781 22.9375 261.550781 23 L 261.550781 23.664063 C 261.53125 23.726563 261.519531 23.761719 261.457031 23.761719 C 260.984375 23.761719 260.640625 23.675781 260.359375 23.503906 C 260.058594 23.320313 259.914063 23.097656 259.871094 22.785156 L 259.832031 22.550781 Z M 257.609375 21.769531 C 257.902344 22.023438 258.238281 22.195313 258.601563 22.277344 C 258.964844 22.355469 259.371094 22.40625 259.8125 22.414063 L 259.523438 20.609375 L 259.515625 20.589844 C 258.617188 20.886719 257.988281 21.289063 257.609375 21.769531 Z M 258.890625 18.425781 Z M 259.71875 24.089844 Z M 259.5 24.449219 Z M 258.726563 17.664063 C 258.582031 17.878906 258.371094 18.132813 258.0625 18.429688 C 257.707031 18.136719 257.480469 17.929688 257.320313 17.742188 C 257.511719 17.535156 257.757813 17.3125 258.042969 16.988281 C 258.117188 17.070313 258.359375 17.304688 258.726563 17.664063 Z M 260.414063 17.503906 C 260.273438 17.710938 260.054688 17.980469 259.742188 18.269531 C 259.410156 18.015625 259.179688 17.789063 259.003906 17.578125 C 259.082031 17.5 259.324219 17.257813 259.726563 16.824219 C 259.804688 16.898438 260.042969 17.148438 260.414063 17.503906 Z M 258.90625 18.539063 Z M 258.851563 16.550781 Z M 258.90625 18.429688 L 258.90625 18.429688" />
  <path d="M 2760 299.771875 L 3210.585938 299.771875" transform="matrix(.1 0 0 -.1 0 253.86)" fill="none" stroke-width="7.97" stroke-linejoin="round" stroke="#000" stroke-miterlimit="10" />
  <path d="M295.46875 219.710938L295.46875 208.441406 295.398438 208.441406C294.753906 209.773438 293.476563 210.902344 292.441406 211.722656L292.710938 212.003906C293.167969 211.683594 293.597656 211.425781 294.027344 211.011719 294.148438 210.890625 294.257813 210.808594 294.363281 210.808594 294.496094 210.808594 294.554688 210.929688 294.554688 211.171875L294.554688 219.710938 295.46875 219.710938M304.308594 216.160156C303.851563 216.472656 303.410156 216.738281 302.992188 217.15625 302.859375 217.277344 302.761719 217.34375 302.65625 217.34375 302.523438 217.34375 302.46875 217.238281 302.46875 216.980469L302.46875 208.441406 301.554688 208.441406 301.554688 219.710938 301.621094 219.710938C302.253906 218.394531 303.542969 217.265625 304.566406 216.429688L304.308594 216.160156" />
  <path d="M330.929688 228.058594L330.929688 227.683594C329.691406 227.683594 329.195313 227.441406 329.195313 226.78125L329.195313 219.464844 328.804688 219.464844 326.195313 220.207031 326.195313 220.648438C326.613281 220.515625 327.296875 220.433594 327.566406 220.433594 327.902344 220.433594 328.011719 220.621094 328.011719 221.09375L328.011719 226.78125C328.011719 227.457031 327.539063 227.683594 326.277344 227.683594L326.277344 228.058594 330.929688 228.058594M332.324219 225.855469L332.367188 228.167969 332.648438 228.167969 332.929688 227.859375 332.957031 227.859375C333.304688 228.007813 333.710938 228.207031 334.488281 228.207031 335.699219 228.207031 336.746094 227.722656 336.746094 226.460938 336.746094 225.464844 336.089844 224.964844 334.867188 224.320313 333.734375 223.742188 333.292969 223.40625 333.292969 222.882813 333.292969 222.277344 333.765625 221.996094 334.382813 221.996094 335.203125 221.996094 335.699219 222.386719 335.996094 223.660156L336.359375 223.660156 336.320313 221.605469 336.050781 221.605469 335.820313 221.886719 335.808594 221.886719C335.472656 221.726563 335.070313 221.539063 334.394531 221.539063 333.238281 221.539063 332.339844 222.128906 332.339844 223.230469 332.339844 224.226563 332.890625 224.699219 334.113281 225.316406 335.363281 225.933594 335.617188 226.191406 335.617188 226.824219 335.617188 227.457031 335.136719 227.710938 334.464844 227.710938 333.46875 227.710938 332.957031 227.238281 332.671875 225.855469L332.324219 225.855469" fill="#7c24e7" />
  <path d="M 2760 600.1625 L 3210.585938 600.1625" transform="matrix(.1 0 0 -.1 0 253.86)" fill="none" stroke-width="7.97" stroke-linejoin="round" stroke="#000" stroke-miterlimit="10" />
  <path d="M295.46875 189.710938L295.46875 178.441406 295.398438 178.441406C294.753906 179.773438 293.476563 180.902344 292.441406 181.722656L292.710938 182.003906C293.167969 181.683594 293.597656 181.425781 294.027344 181.011719 294.148438 180.890625 294.257813 180.808594 294.363281 180.808594 294.496094 180.808594 294.554688 180.929688 294.554688 181.171875L294.554688 189.710938 295.46875 189.710938M304.308594 186.160156C303.851563 186.472656 303.410156 186.738281 302.992188 187.15625 302.859375 187.277344 302.761719 187.34375 302.65625 187.34375 302.523438 187.34375 302.46875 187.238281 302.46875 186.980469L302.46875 178.441406 301.554688 178.441406 301.554688 189.710938 301.621094 189.710938C302.253906 188.394531 303.542969 187.265625 304.566406 186.429688L304.308594 186.160156" />
  <path d="M331.441406 195.910156L331.050781 195.910156C330.742188 196.714844 330.566406 196.996094 329.851563 196.996094L327.984375 196.996094 327.042969 197.039063 327.042969 196.972656 328.816406 195.289063C330.242188 193.851563 331.007813 192.921875 331.007813 191.726563 331.007813 190.3125 329.945313 189.398438 328.429688 189.398438 327.121094 189.398438 326.210938 190.152344 325.792969 191.457031L326.113281 191.589844C326.613281 190.582031 327.203125 190.273438 328.078125 190.273438 329.113281 190.273438 329.757813 190.917969 329.757813 191.925781 329.757813 193.339844 329.085938 194.1875 327.753906 195.558594L325.710938 197.601563 325.710938 198.058594 331.007813 198.058594 331.441406 195.910156M332.324219 195.855469L332.367188 198.167969 332.648438 198.167969 332.929688 197.859375 332.957031 197.859375C333.304688 198.007813 333.710938 198.207031 334.488281 198.207031 335.699219 198.207031 336.746094 197.722656 336.746094 196.460938 336.746094 195.464844 336.089844 194.964844 334.867188 194.320313 333.734375 193.742188 333.292969 193.40625 333.292969 192.882813 333.292969 192.277344 333.765625 191.996094 334.382813 191.996094 335.203125 191.996094 335.699219 192.386719 335.996094 193.660156L336.359375 193.660156 336.320313 191.605469 336.050781 191.605469 335.820313 191.886719 335.808594 191.886719C335.472656 191.726563 335.070313 191.539063 334.394531 191.539063 333.238281 191.539063 332.339844 192.128906 332.339844 193.230469 332.339844 194.226563 332.890625 194.699219 334.113281 195.316406 335.363281 195.933594 335.617188 196.191406 335.617188 196.824219 335.617188 197.457031 335.136719 197.710938 334.464844 197.710938 333.46875 197.710938 332.957031 197.238281 332.671875 195.855469L332.324219 195.855469" fill="#7c24e7" />
  <path d="M 2760 1050.7875 L 3210.585938 1050.7875" transform="matrix(.1 0 0 -.1 0 253.86)" fill="none" stroke-width="7.97" stroke-linejoin="round" stroke="#000" stroke-miterlimit="10" />
  <path d="M326.355469 146.363281C326.8125 145.648438 327.3125 145.273438 328.117188 145.273438 328.953125 145.273438 329.492188 145.730469 329.492188 146.523438 329.492188 147.613281 328.535156 148.351563 327.621094 148.351563L327.367188 148.351563 327.367188 148.863281 327.632813 148.863281C328.925781 148.863281 330.070313 149.65625 330.070313 150.855469 330.070313 152.171875 329.246094 152.5625 328.402344 152.5625 328.078125 152.5625 327.890625 152.507813 327.3125 152.214844 326.839844 151.972656 326.734375 151.902344 326.519531 151.902344 326.167969 151.902344 325.992188 152.214844 325.992188 152.492188 325.992188 152.84375 326.289063 153.234375 327.5 153.234375 329.464844 153.234375 331.171875 152.292969 331.171875 150.449219 331.171875 149.253906 330.269531 148.539063 329.195313 148.203125L329.195313 148.164063C330.042969 147.628906 330.648438 147.128906 330.648438 146.199219 330.648438 145.179688 329.851563 144.398438 328.480469 144.398438 327.378906 144.398438 326.546875 145.019531 326.046875 146.1875L326.355469 146.363281M332.324219 150.855469L332.367188 153.167969 332.648438 153.167969 332.929688 152.859375 332.957031 152.859375C333.304688 153.007813 333.710938 153.207031 334.488281 153.207031 335.699219 153.207031 336.746094 152.722656 336.746094 151.460938 336.746094 150.464844 336.089844 149.964844 334.867188 149.320313 333.734375 148.742188 333.292969 148.40625 333.292969 147.882813 333.292969 147.277344 333.765625 146.992188 334.382813 146.992188 335.203125 146.992188 335.699219 147.386719 335.996094 148.660156L336.359375 148.660156 336.320313 146.605469 336.050781 146.605469 335.820313 146.886719 335.808594 146.886719C335.472656 146.726563 335.070313 146.539063 334.394531 146.539063 333.238281 146.539063 332.339844 147.128906 332.339844 148.230469 332.339844 149.226563 332.890625 149.695313 334.113281 150.316406 335.363281 150.933594 335.617188 151.191406 335.617188 151.820313 335.617188 152.453125 335.136719 152.710938 334.464844 152.710938 333.46875 152.710938 332.957031 152.238281 332.671875 150.855469L332.324219 150.855469" fill="#7c24e7" />
  <path d="M 2760 1651.56875 L 3210.585938 1651.56875" transform="matrix(.1 0 0 -.1 0 253.86)" fill="none" stroke-width="7.97" stroke-linejoin="round" stroke="#000" stroke-miterlimit="10" />
  <path d="M331.667969 90.835938L331.667969 89.90625 330.296875 89.90625 330.296875 84.285156 329.476563 84.285156 325.375 89.988281 325.375 90.835938 329.101563 90.835938 329.101563 92.960938 330.296875 92.960938 330.296875 90.835938zM329.101563 89.90625L326.113281 89.90625 326.113281 89.855469 329.046875 85.753906 329.101563 85.753906 329.101563 89.90625M332.324219 90.753906L332.367188 93.066406 332.648438 93.066406 332.929688 92.757813 332.957031 92.757813C333.304688 92.90625 333.710938 93.109375 334.488281 93.109375 335.699219 93.109375 336.746094 92.625 336.746094 91.359375 336.746094 90.363281 336.089844 89.867188 334.867188 89.222656 333.734375 88.644531 333.292969 88.308594 333.292969 87.78125 333.292969 87.175781 333.765625 86.894531 334.382813 86.894531 335.203125 86.894531 335.699219 87.285156 335.996094 88.5625L336.359375 88.5625 336.320313 86.503906 336.050781 86.503906 335.820313 86.785156 335.808594 86.785156C335.472656 86.625 335.070313 86.4375 334.394531 86.4375 333.238281 86.4375 332.339844 87.027344 332.339844 88.132813 332.339844 89.128906 332.890625 89.597656 334.113281 90.214844 335.363281 90.835938 335.617188 91.089844 335.617188 91.722656 335.617188 92.355469 335.136719 92.609375 334.464844 92.609375 333.46875 92.609375 332.957031 92.140625 332.671875 90.753906L332.324219 90.753906" fill="#7c24e7" />
  <path d="M 3435.898438 900.592188 L 3586.09375 900.592188" transform="matrix(.1 0 0 -.1 0 253.86)" fill="none" stroke-width="7.97" stroke-linejoin="round" stroke="#000" stroke-miterlimit="10" />
  <path d="M348.066406 159.710938L348.066406 148.441406 348 148.441406C347.355469 149.773438 346.078125 150.902344 345.042969 151.722656L345.3125 152.003906C345.765625 151.683594 346.199219 151.425781 346.628906 151.011719 346.75 150.890625 346.855469 150.808594 346.964844 150.808594 347.097656 150.808594 347.152344 150.929688 347.152344 151.171875L347.152344 159.710938 348.066406 159.710938M356.910156 156.160156C356.453125 156.472656 356.007813 156.738281 355.59375 157.15625 355.457031 157.277344 355.363281 157.34375 355.257813 157.34375 355.121094 157.34375 355.066406 157.238281 355.066406 156.980469L355.066406 148.441406 354.152344 148.441406 354.152344 159.710938 354.21875 159.710938C354.851563 158.394531 356.144531 157.265625 357.164063 156.429688L356.910156 156.160156" />
  <path d="M 3646.171875 900.592188 L 3796.367188 900.592188" transform="matrix(.1 0 0 -.1 0 253.86)" fill="none" stroke-width="7.97" stroke-linejoin="round" stroke="#000" stroke-miterlimit="10" />
  <path d="M369.066406 159.710938L369.066406 148.441406 369 148.441406C368.355469 149.773438 367.078125 150.902344 366.042969 151.722656L366.3125 152.003906C366.765625 151.683594 367.199219 151.425781 367.628906 151.011719 367.75 150.890625 367.855469 150.808594 367.964844 150.808594 368.097656 150.808594 368.152344 150.929688 368.152344 151.171875L368.152344 159.710938 369.066406 159.710938M377.910156 156.160156C377.453125 156.472656 377.007813 156.738281 376.59375 157.15625 376.457031 157.277344 376.363281 157.34375 376.257813 157.34375 376.121094 157.34375 376.066406 157.238281 376.066406 156.980469L376.066406 148.441406 375.152344 148.441406 375.152344 159.710938 375.21875 159.710938C375.851563 158.394531 377.144531 157.265625 378.164063 156.429688L377.910156 156.160156" />
  <path d="M 3856.445313 900.592188 L 4006.640625 900.592188" transform="matrix(.1 0 0 -.1 0 253.86)" fill="none" stroke-width="7.97" stroke-linejoin="round" stroke="#000" stroke-miterlimit="10" />
  <path d="M390.066406 159.710938L390.066406 148.441406 390 148.441406C389.355469 149.773438 388.078125 150.902344 387.042969 151.722656L387.3125 152.003906C387.765625 151.683594 388.199219 151.425781 388.628906 151.011719 388.75 150.890625 388.855469 150.808594 388.964844 150.808594 389.097656 150.808594 389.152344 150.929688 389.152344 151.171875L389.152344 159.710938 390.066406 159.710938M398.910156 156.160156C398.453125 156.472656 398.007813 156.738281 397.59375 157.15625 397.457031 157.277344 397.363281 157.34375 397.257813 157.34375 397.121094 157.34375 397.066406 157.238281 397.066406 156.980469L397.066406 148.441406 396.152344 148.441406 396.152344 159.710938 396.21875 159.710938C396.851563 158.394531 398.144531 157.265625 399.164063 156.429688L398.910156 156.160156" />
  <path d="M411.039063 164.507813L410.648438 164.507813C410.339844 165.316406 410.164063 165.597656 409.453125 165.597656L407.585938 165.597656 406.640625 165.636719 406.640625 165.570313 408.417969 163.890625C409.84375 162.449219 410.609375 161.523438 410.609375 160.324219 410.609375 158.914063 409.546875 158 408.027344 158 406.722656 158 405.808594 158.753906 405.390625 160.058594L405.714844 160.191406C406.214844 159.183594 406.804688 158.871094 407.679688 158.871094 408.714844 158.871094 409.359375 159.519531 409.359375 160.527344 409.359375 161.941406 408.6875 162.785156 407.355469 164.160156L405.3125 166.203125 405.3125 166.660156 410.609375 166.660156 411.039063 164.507813M413.765625 160.175781L413.429688 160.175781 411.734375 160.554688 411.734375 160.945313C411.734375 160.945313 411.992188 160.917969 412.167969 160.917969 412.609375 160.917969 412.679688 161.09375 412.679688 161.605469L412.679688 168.261719C412.679688 169.011719 412.542969 169.242188 411.695313 169.242188L411.695313 169.621094 415.097656 169.621094 415.097656 169.230469C414.050781 169.230469 413.792969 169.054688 413.792969 168.179688L413.792969 166.417969 413.847656 166.417969C414.238281 166.6875 414.695313 166.792969 415.207031 166.792969 416.820313 166.792969 418.152344 165.4375 418.152344 163.152344 418.152344 161.386719 417.222656 160.136719 415.890625 160.136719 415.097656 160.136719 414.453125 160.554688 413.808594 161.308594L413.765625 161.308594zM413.792969 161.871094C414.050781 161.535156 414.628906 161.050781 415.339844 161.050781 416.335938 161.050781 416.929688 161.832031 416.929688 163.527344 416.929688 165.394531 416.214844 166.269531 415.273438 166.269531 414.519531 166.269531 414.050781 165.664063 413.792969 165.382813L413.792969 161.871094" fill="#7c24e7" />
  <path d="M 3435.898438 1351.178125 L 3586.09375 1351.178125" transform="matrix(.1 0 0 -.1 0 253.86)" fill="none" stroke-width="7.97" stroke-linejoin="round" stroke="#000" stroke-miterlimit="10" />
  <path d="M 351.566406 114.613281 L 351.566406 103.339844 L 351.5 103.339844 C 350.855469 104.671875 349.578125 105.800781 348.542969 106.621094 L 348.8125 106.90625 C 349.265625 106.582031 349.699219 106.328125 350.128906 105.910156 C 350.25 105.789063 350.355469 105.707031 350.464844 105.707031 C 350.597656 105.707031 350.652344 105.828125 350.652344 106.070313 L 350.652344 114.613281 L 351.566406 114.613281" />
  <path d="M3646.171875 1351.178125L3796.367188 1351.178125M3856.445313 1351.178125L4006.640625 1351.178125" transform="matrix(.1 0 0 -.1 0 253.86)" fill="none" stroke-width="7.97" stroke-linejoin="round" stroke="#000" stroke-miterlimit="10" />
  <path d="M405.957031 114.863281C406.414063 114.148438 406.910156 113.773438 407.71875 113.773438 408.550781 113.773438 409.089844 114.230469 409.089844 115.023438 409.089844 116.113281 408.136719 116.851563 407.21875 116.851563L406.964844 116.851563 406.964844 117.363281 407.234375 117.363281C408.523438 117.363281 409.667969 118.15625 409.667969 119.355469 409.667969 120.671875 408.847656 121.0625 408.003906 121.0625 407.679688 121.0625 407.488281 121.007813 406.910156 120.714844 406.441406 120.472656 406.332031 120.402344 406.117188 120.402344 405.769531 120.402344 405.59375 120.714844 405.59375 120.992188 405.59375 121.34375 405.890625 121.734375 407.101563 121.734375 409.0625 121.734375 410.773438 120.792969 410.773438 118.949219 410.773438 117.753906 409.871094 117.039063 408.792969 116.703125L408.792969 116.664063C409.640625 116.128906 410.246094 115.628906 410.246094 114.699219 410.246094 113.679688 409.453125 112.898438 408.082031 112.898438 406.976563 112.898438 406.144531 113.519531 405.648438 114.6875L405.957031 114.863281M413.765625 115.078125L413.429688 115.078125 411.734375 115.453125 411.734375 115.84375C411.734375 115.84375 411.992188 115.816406 412.167969 115.816406 412.609375 115.816406 412.679688 115.992188 412.679688 116.503906L412.679688 123.160156C412.679688 123.914063 412.542969 124.144531 411.695313 124.144531L411.695313 124.519531 415.097656 124.519531 415.097656 124.128906C414.050781 124.128906 413.792969 123.953125 413.792969 123.078125L413.792969 121.316406 413.847656 121.316406C414.238281 121.585938 414.695313 121.695313 415.207031 121.695313 416.820313 121.695313 418.152344 120.335938 418.152344 118.050781 418.152344 116.289063 417.222656 115.039063 415.890625 115.039063 415.097656 115.039063 414.453125 115.453125 413.808594 116.207031L413.765625 116.207031zM413.792969 116.773438C414.050781 116.4375 414.628906 115.953125 415.339844 115.953125 416.335938 115.953125 416.929688 116.730469 416.929688 118.425781 416.929688 120.296875 416.214844 121.167969 415.273438 121.167969 414.519531 121.167969 414.050781 120.566406 413.792969 120.28125L413.792969 116.773438" fill="#7c24e7" />
  <path d="M3435.898438 1951.959375L3586.09375 1951.959375M3646.171875 1951.959375L3796.367188 1951.959375M3856.445313 1951.959375L4006.640625 1951.959375" transform="matrix(.1 0 0 -.1 0 253.86)" fill="none" stroke-width="7.97" stroke-linejoin="round" stroke="#000" stroke-miterlimit="10" />
  <path d="M411.269531 59.433594L411.269531 58.507813 409.898438 58.507813 409.898438 52.886719 409.078125 52.886719 404.976563 58.589844 404.976563 59.433594 408.699219 59.433594 408.699219 61.558594 409.898438 61.558594 409.898438 59.433594zM408.699219 58.507813L405.714844 58.507813 405.714844 58.453125 408.648438 54.351563 408.699219 54.351563 408.699219 58.507813M413.765625 55.078125L413.429688 55.078125 411.734375 55.453125 411.734375 55.84375C411.734375 55.84375 411.992188 55.816406 412.167969 55.816406 412.609375 55.816406 412.679688 55.992188 412.679688 56.503906L412.679688 63.160156C412.679688 63.914063 412.542969 64.144531 411.695313 64.144531L411.695313 64.519531 415.097656 64.519531 415.097656 64.128906C414.050781 64.128906 413.792969 63.953125 413.792969 63.078125L413.792969 61.316406 413.847656 61.316406C414.238281 61.585938 414.695313 61.695313 415.207031 61.695313 416.820313 61.695313 418.152344 60.335938 418.152344 58.050781 418.152344 56.289063 417.222656 55.039063 415.890625 55.039063 415.097656 55.039063 414.453125 55.453125 413.808594 56.207031L413.765625 56.207031zM413.792969 56.773438C414.050781 56.4375 414.628906 55.953125 415.339844 55.953125 416.335938 55.953125 416.929688 56.730469 416.929688 58.425781 416.929688 60.296875 416.214844 61.167969 415.273438 61.167969 414.519531 61.167969 414.050781 60.566406 413.792969 60.28125L413.792969 56.773438" fill="#7c24e7" />
  <path d="M 3856.445313 1801.764063 L 4307.03125 1801.764063" transform="matrix(.1 0 0 -.1 0 253.86)" fill="none" stroke-width="7.97" stroke-linejoin="round" stroke="#000" stroke-dasharray="29.8883,29.8883" stroke-miterlimit="10" />
  <path d="M435.957031 71.664063C436.414063 70.949219 436.910156 70.570313 437.71875 70.570313 438.550781 70.570313 439.089844 71.03125 439.089844 71.824219 439.089844 72.914063 438.136719 73.652344 437.21875 73.652344L436.964844 73.652344 436.964844 74.164063 437.234375 74.164063C438.523438 74.164063 439.667969 74.957031 439.667969 76.152344 439.667969 77.472656 438.847656 77.863281 438.003906 77.863281 437.679688 77.863281 437.488281 77.808594 436.910156 77.511719 436.441406 77.269531 436.332031 77.203125 436.117188 77.203125 435.769531 77.203125 435.59375 77.511719 435.59375 77.792969 435.59375 78.144531 435.890625 78.535156 437.101563 78.535156 439.0625 78.535156 440.773438 77.59375 440.773438 75.75 440.773438 74.554688 439.871094 73.839844 438.792969 73.503906L438.792969 73.464844C439.640625 72.925781 440.246094 72.429688 440.246094 71.5 440.246094 70.480469 439.453125 69.699219 438.082031 69.699219 436.976563 69.699219 436.144531 70.316406 435.648438 71.488281L435.957031 71.664063M448.414063 78.117188L448.414063 77.753906 448.128906 77.753906C447.632813 77.753906 447.457031 77.621094 447.457031 76.921875L447.457031 68.863281 447.09375 68.863281 445.398438 69.335938 445.398438 69.714844C445.398438 69.714844 445.628906 69.683594 445.75 69.683594 446.273438 69.683594 446.34375 69.808594 446.34375 70.398438L446.34375 72.160156C445.925781 71.933594 445.480469 71.839844 445.039063 71.839844 443.34375 71.839844 441.945313 73.195313 441.945313 75.414063 441.945313 77.136719 442.722656 78.46875 444.242188 78.46875 445.132813 78.46875 445.816406 77.957031 446.328125 77.5L446.382813 77.5 446.382813 78.425781 446.691406 78.425781zM446.34375 77.003906C445.871094 77.324219 445.507813 77.5 444.875 77.5 443.734375 77.5 443.113281 76.746094 443.113281 74.890625 443.113281 73.195313 443.878906 72.375 445.007813 72.375 445.84375 72.375 446.234375 72.898438 446.34375 73.449219L446.34375 77.003906" fill="#7c24e7" />
  <path d="M 3465.9375 1441.295313 C 3259.570313 1354.225 3147.460938 1250.123438 3068.164063 1095.279688" transform="matrix(.1 0 0 -.1 0 253.86)" fill="none" stroke-width="7.97" stroke-linejoin="round" stroke="#f3a203" stroke-miterlimit="10" />
  <path d="M 305.054688 147.773438 L 309.386719 143.84375 L 306.726563 144.507813 L 305.710938 141.960938" fill="#f3a203" />
  <path d="M 3050.546875 1060.865625 L 3093.867188 1100.1625 L 3067.265625 1093.521875 L 3057.109375 1118.990625 Z M 3050.546875 1060.865625" transform="matrix(.1 0 0 -.1 0 253.86)" fill="none" stroke-width="7.977" stroke="#f3a203" stroke-miterlimit="10" />
  <path d="M307.460938 103.230469L307.460938 103.929688C307.441406 104.628906 307.433594 105.632813 307.382813 106.867188L306.871094 106.960938C306.800781 104.34375 306.722656 102.167969 306.5625 100.441406L306.558594 100.300781C306.539063 100.050781 306.617188 99.871094 306.734375 99.734375 306.84375 99.570313 307.039063 99.496094 307.296875 99.445313 307.277344 99.464844 307.320313 99.535156 307.328125 99.578125 307.332031 99.609375 307.464844 100.015625 307.695313 100.773438L307.394531 101.03125 307.402344 101.085938C307.441406 101.878906 307.460938 102.601563 307.460938 103.230469zM307.066406 98.898438zM307.171875 107.539063L307.171875 107.539063M301.429688 106.960938C301.402344 106.960938 301.40625 106.921875 301.40625 106.839844 301.402344 106.710938 301.425781 106.589844 301.46875 106.398438 301.484375 106.191406 301.542969 106.105469 301.574219 106.105469L301.808594 106.105469C302.300781 105.703125 302.671875 105.414063 302.914063 105.183594 303.148438 104.949219 303.386719 104.699219 303.609375 104.410156 303.265625 104.007813 302.890625 103.65625 302.476563 103.308594 302.035156 102.941406 301.648438 102.664063 301.246094 102.433594L300.835938 102.457031C300.628906 102.246094 300.503906 102.117188 300.417969 101.96875 300.324219 101.820313 300.289063 101.664063 300.289063 101.496094 300.257813 101.371094 300.3125 101.273438 300.359375 101.164063 300.386719 101.054688 300.511719 100.960938 300.671875 100.878906 300.957031 101.085938 301.339844 101.367188 301.742188 101.707031 302.128906 102.027344 302.515625 102.378906 302.859375 102.710938 303.183594 103.027344 303.5625 103.425781 303.929688 103.863281L303.945313 103.820313C304.0625 103.515625 304.144531 103.230469 304.144531 102.90625 304.128906 102.578125 304.0625 101.902344 303.898438 100.835938 303.785156 100.300781 303.777344 100.03125 303.777344 99.953125 303.753906 99.546875 304.027344 99.347656 304.527344 99.253906L304.722656 99.960938 304.925781 100.582031 304.625 100.839844 304.640625 101.074219 304.707031 102.675781C304.703125 103.242188 304.5625 103.808594 304.273438 104.351563 304.484375 104.691406 304.707031 105.070313 304.871094 105.394531 305.015625 105.703125 305.121094 105.921875 305.121094 106.011719 305.117188 106.117188 305.078125 106.289063 304.988281 106.476563 304.871094 106.65625 304.828125 106.761719 304.777344 106.773438 304.054688 106.894531 302.964844 106.960938 301.429688 106.960938zM304.679688 105.886719C304.492188 105.578125 304.28125 105.238281 303.96875 104.839844 303.625 105.257813 303.21875 105.699219 302.683594 106.085938 303.3125 106.054688 304.003906 105.996094 304.679688 105.886719zM304.101563 98.707031zM300.617188 100.332031zM304.257813 107.539063zM302.164063 107.539063zM300.835938 99.183594L300.839844 99.136719C300.828125 99.078125 300.828125 99.074219 300.800781 99.042969 300.773438 98.984375 300.738281 98.996094 300.699219 98.996094 300.550781 98.984375 300.476563 99.039063 300.382813 99.121094 300.257813 99.183594 300.21875 99.304688 300.171875 99.414063 300.265625 99.546875 300.46875 99.640625 300.703125 99.640625 300.839844 99.613281 301.023438 99.617188 301.257813 99.570313L301.234375 99.996094C300.914063 100.0625 300.671875 100.15625 300.472656 100.238281 300.25 100.296875 300.066406 100.421875 299.851563 100.539063L299.824219 100.105469 300.265625 99.855469C299.972656 99.777344 299.855469 99.65625 299.855469 99.40625 299.839844 99.179688 299.945313 98.992188 300.121094 98.808594 300.289063 98.605469 300.484375 98.527344 300.683594 98.527344 300.945313 98.503906 301.121094 98.664063 301.121094 98.941406 301.113281 99.011719 301.09375 99.140625 301.042969 99.242188zM300.644531 100.378906zM300.535156 98.253906L300.535156 98.253906M293.023438 104.707031C293.121094 104.691406 293.21875 104.742188 293.289063 104.808594 293.101563 105.171875 293.019531 105.449219 292.953125 105.585938 293.117188 105.664063 293.324219 105.746094 293.511719 105.804688 294.9375 103.894531 296.160156 102.960938 297.164063 102.960938 297.355469 102.960938 297.636719 103.046875 297.945313 103.21875 298.242188 103.371094 298.535156 103.609375 298.777344 103.878906 298.996094 104.144531 299.144531 104.386719 299.144531 104.589844 299.128906 105.039063 298.996094 105.457031 298.703125 105.808594 298.410156 106.144531 297.96875 106.441406 297.382813 106.648438 296.769531 106.828125 296.179688 106.960938 295.535156 106.960938 294.984375 106.960938 294.441406 106.902344 293.871094 106.785156 293.28125 106.660156 292.851563 106.515625 292.515625 106.328125L292.324219 106.550781C292.070313 106.792969 291.667969 106.960938 291.101563 106.960938 291.039063 106.960938 291.007813 106.929688 291.007813 106.867188L291.007813 106.199219C291.003906 106.125 291.039063 106.105469 291.101563 106.105469 291.433594 106.089844 291.703125 106.046875 291.898438 105.925781 292.0625 105.78125 292.292969 105.566406 292.496094 105.214844L292.671875 104.902344C292.722656 104.757813 292.863281 104.707031 293.023438 104.707031zM295.648438 106.105469C296.605469 106.089844 297.621094 105.789063 298.640625 105.148438 298.402344 104.726563 298.144531 104.449219 297.828125 104.230469 297.5 103.984375 297.195313 103.898438 296.886719 103.898438 296.503906 103.886719 296.113281 104.070313 295.621094 104.414063 295.128906 104.738281 294.605469 105.269531 294.03125 105.941406 294.605469 106.023438 295.152344 106.105469 295.648438 106.105469zM295.644531 102.414063zM296.546875 107.289063zM296.546875 107.539063L296.546875 107.539063" fill="#f3a203" />
  <path d="M 287.773438 106.066406 C 287.476563 105.742188 287.363281 105.425781 287.363281 105.105469 C 287.34375 104.898438 287.386719 104.691406 287.429688 104.4375 C 287.464844 104.15625 287.515625 104.015625 287.5625 103.933594 C 287.734375 103.558594 288.007813 103.300781 288.320313 103.089844 C 288.628906 102.867188 288.972656 102.769531 289.332031 102.769531 C 289.515625 102.765625 289.710938 102.863281 289.890625 103.050781 C 290.042969 103.210938 290.21875 103.496094 290.332031 103.816406 C 290.433594 104.121094 290.503906 104.460938 290.503906 104.777344 C 290.503906 105.253906 290.34375 105.683594 290.023438 106.050781 C 290.25 106.058594 290.660156 106.105469 291.226563 106.105469 C 291.28125 106.089844 291.324219 106.136719 291.324219 106.199219 L 291.324219 106.867188 C 291.316406 106.925781 291.289063 106.960938 291.226563 106.960938 C 290.296875 106.960938 289.558594 106.84375 288.976563 106.613281 L 288.929688 106.597656 C 288.664063 106.714844 288.375 106.820313 288.035156 106.875 C 287.683594 106.925781 287.289063 106.960938 286.8125 106.960938 C 286.738281 106.960938 286.707031 106.925781 286.707031 106.855469 L 286.707031 106.210938 C 286.703125 106.125 286.742188 106.105469 286.8125 106.105469 C 287.21875 106.089844 287.542969 106.09375 287.773438 106.066406 Z M 290.066406 105.121094 C 290.023438 104.914063 289.984375 104.730469 289.882813 104.511719 C 289.753906 104.269531 289.667969 104.101563 289.539063 103.949219 C 289.398438 103.769531 289.308594 103.722656 289.226563 103.722656 C 289.007813 103.703125 288.765625 103.847656 288.476563 104.101563 C 288.164063 104.339844 287.957031 104.652344 287.78125 105.003906 C 288.0625 105.347656 288.472656 105.628906 288.933594 105.804688 C 289.335938 105.632813 289.722656 105.421875 290.066406 105.121094 Z M 289.039063 102.222656 Z M 288.972656 107.289063 Z M 288.972656 107.539063 Z M 289.769531 101.324219 C 289.570313 101.554688 289.355469 101.851563 289.046875 102.144531 C 288.699219 101.855469 288.449219 101.640625 288.242188 101.417969 C 288.613281 101.015625 288.886719 100.761719 289.027344 100.597656 C 289.253906 100.84375 289.511719 101.097656 289.769531 101.324219 Z M 289.046875 102.253906 Z M 289.027344 100.324219 L 289.027344 100.324219" fill="#f3a203" />
  <path d="M286.867188 106.960938C286.496094 106.960938 286.214844 106.867188 285.953125 106.6875 285.808594 107.457031 285.539063 108.089844 285.089844 108.550781 284.609375 108.984375 284.101563 109.246094 283.484375 109.246094 283.277344 109.21875 283.058594 109.175781 282.75 109.035156 282.421875 108.871094 282.195313 108.757813 282.015625 108.617188L282.171875 108.246094C282.554688 108.300781 282.929688 108.371094 283.226563 108.371094 283.777344 108.367188 284.265625 108.203125 284.664063 107.871094 285.039063 107.535156 285.367188 107.050781 285.578125 106.414063 285.453125 106.15625 285.367188 105.9375 285.238281 105.707031 284.964844 105.238281 284.785156 104.890625 284.667969 104.617188 284.527344 104.320313 284.488281 104.109375 284.488281 103.925781 284.460938 103.714844 284.546875 103.582031 284.660156 103.46875 284.757813 103.351563 284.9375 103.246094 285.140625 103.144531 285.179688 103.320313 285.269531 103.574219 285.363281 103.820313 285.578125 104.425781 285.761719 104.894531 285.84375 105.175781 285.910156 105.453125 285.976563 105.691406 285.992188 105.882813 286.214844 106.023438 286.535156 106.105469 286.867188 106.105469 286.90625 106.089844 286.960938 106.136719 286.960938 106.199219L286.960938 106.867188C286.941406 106.925781 286.929688 106.960938 286.867188 106.960938zM284.597656 102.597656zM283.53125 109.792969L283.53125 109.792969M306.460938 117.429688L306.460938 118.128906C306.441406 118.828125 306.433594 119.832031 306.382813 121.066406L305.871094 121.160156C305.800781 118.542969 305.722656 116.367188 305.5625 114.640625L305.558594 114.5C305.539063 114.25 305.617188 114.074219 305.734375 113.933594 305.84375 113.769531 306.039063 113.695313 306.296875 113.644531 306.277344 113.664063 306.320313 113.738281 306.328125 113.777344 306.332031 113.8125 306.464844 114.214844 306.695313 114.972656L306.394531 115.230469 306.402344 115.285156C306.441406 116.078125 306.460938 116.804688 306.460938 117.429688zM306.066406 113.097656zM306.171875 121.738281L306.171875 121.738281M302.289063 121.160156C302.195313 121.160156 302.191406 121.128906 302.191406 121.066406L302.191406 120.398438C302.160156 120.324219 302.222656 120.308594 302.289063 120.308594 302.710938 120.289063 303.15625 120.207031 303.53125 120.011719 303.367188 118.011719 303.191406 116.113281 302.96875 114.269531 303.160156 114.046875 303.433594 113.84375 303.71875 113.644531 303.746094 114.417969 303.8125 115.503906 303.898438 116.8125 303.933594 117.886719 304.007813 118.851563 304.015625 119.652344 304.011719 119.746094 303.980469 119.945313 303.90625 120.15625 303.828125 120.335938 303.738281 120.570313 303.621094 120.769531 303.480469 121.027344 303.042969 121.160156 302.289063 121.160156zM303.1875 113.097656zM303.644531 121.488281zM303.644531 121.738281L303.644531 121.738281" fill="#f3a203" />
  <path d="M 302.40625 121.160156 C 302.085938 121.160156 301.773438 121.097656 301.460938 120.96875 C 301.125 120.839844 300.886719 120.671875 300.6875 120.464844 C 300.328125 120.679688 299.949219 120.851563 299.46875 120.972656 C 298.96875 121.09375 298.511719 121.160156 298.035156 121.160156 C 297.484375 121.160156 296.941406 121.101563 296.371094 120.984375 C 295.78125 120.859375 295.351563 120.71875 295.015625 120.53125 L 294.824219 120.75 C 294.570313 120.992188 294.167969 121.160156 293.601563 121.160156 C 293.539063 121.160156 293.507813 121.128906 293.507813 121.066406 L 293.507813 120.398438 C 293.503906 120.324219 293.539063 120.308594 293.601563 120.308594 C 293.933594 120.289063 294.203125 120.246094 294.398438 120.125 C 294.5625 119.980469 294.792969 119.765625 294.996094 119.414063 L 295.171875 119.105469 C 295.222656 118.957031 295.363281 118.90625 295.523438 118.90625 C 295.621094 118.890625 295.71875 118.941406 295.789063 119.011719 C 295.601563 119.371094 295.519531 119.648438 295.453125 119.785156 C 295.617188 119.863281 295.824219 119.945313 296.011719 120.003906 C 297.4375 118.09375 298.660156 117.160156 299.664063 117.160156 C 299.855469 117.160156 300.136719 117.246094 300.445313 117.417969 C 300.742188 117.570313 301.035156 117.8125 301.277344 118.078125 C 301.496094 118.34375 301.644531 118.585938 301.644531 118.789063 C 301.628906 119.234375 301.5 119.648438 301.214844 120 C 301.546875 120.191406 301.949219 120.308594 302.40625 120.308594 C 302.46875 120.289063 302.503906 120.339844 302.503906 120.398438 L 302.503906 121.066406 C 302.503906 121.128906 302.46875 121.160156 302.40625 121.160156 Z M 298.148438 120.308594 C 299.105469 120.289063 300.121094 119.988281 301.140625 119.347656 C 300.902344 118.925781 300.644531 118.648438 300.328125 118.429688 C 300 118.183594 299.695313 118.097656 299.386719 118.097656 C 299.003906 118.085938 298.613281 118.269531 298.121094 118.613281 C 297.628906 118.941406 297.105469 119.46875 296.53125 120.144531 C 297.105469 120.226563 297.652344 120.308594 298.148438 120.308594 Z M 298.144531 116.613281 Z M 299.046875 121.488281 Z M 299.046875 121.738281 Z M 298.871094 115.722656 C 298.671875 115.953125 298.453125 116.25 298.148438 116.542969 C 297.800781 116.253906 297.546875 116.039063 297.34375 115.816406 C 297.714844 115.414063 297.988281 115.160156 298.128906 114.996094 C 298.355469 115.242188 298.609375 115.496094 298.871094 115.722656 Z M 298.148438 116.652344 Z M 298.128906 114.722656 L 298.128906 114.722656" fill="#f3a203" />
  <path d="M290.5625 123.433594C290.300781 123.410156 290.015625 123.359375 289.640625 123.207031 289.257813 123.039063 288.984375 122.894531 288.78125 122.71875L288.941406 122.351563C289.328125 122.460938 289.796875 122.558594 290.304688 122.558594 290.765625 122.558594 291.175781 122.445313 291.535156 122.21875 291.882813 121.972656 292.195313 121.632813 292.441406 121.144531 291.699219 121.089844 291.164063 121.054688 290.804688 120.957031 290.4375 120.828125 290.171875 120.703125 290.003906 120.488281 289.828125 120.265625 289.746094 119.988281 289.746094 119.621094 289.730469 119.222656 289.820313 118.867188 289.976563 118.496094 290.101563 118.113281 290.328125 117.824219 290.578125 117.597656 290.800781 117.359375 291.074219 117.261719 291.328125 117.261719 291.625 117.261719 291.917969 117.398438 292.183594 117.675781 292.421875 117.945313 292.664063 118.332031 292.828125 118.816406 292.984375 119.28125 293.078125 119.78125 293.078125 120.257813L293.078125 120.308594 293.742188 120.308594C293.789063 120.289063 293.835938 120.339844 293.835938 120.398438L293.835938 121.066406C293.824219 121.128906 293.804688 121.160156 293.742188 121.160156L292.957031 121.160156C292.828125 121.585938 292.671875 121.976563 292.429688 122.332031 292.175781 122.664063 291.902344 122.960938 291.578125 123.152344 291.226563 123.308594 290.914063 123.433594 290.5625 123.433594zM291.152344 118.210938C290.980469 118.195313 290.84375 118.269531 290.6875 118.390625 290.503906 118.5 290.410156 118.65625 290.3125 118.828125 290.214844 118.980469 290.171875 119.164063 290.171875 119.304688 290.148438 119.554688 290.273438 119.765625 290.484375 119.902344 290.664063 120.023438 290.992188 120.140625 291.390625 120.214844 291.414063 120.207031 291.5 120.234375 291.5625 120.242188 291.605469 120.222656 291.980469 120.265625 292.621094 120.296875 292.523438 119.699219 292.34375 119.21875 292.058594 118.816406 291.753906 118.394531 291.472656 118.210938 291.152344 118.210938zM291.109375 116.714844zM290.835938 123.980469zM291.21875 115.199219L291.21875 115.199219M284.109375 121.105469C284.363281 120.980469 284.65625 120.886719 284.984375 120.777344L285.128906 120.726563C285.109375 120.695313 285.109375 120.710938 285.097656 120.699219 284.960938 120.613281 284.898438 120.546875 284.824219 120.457031 284.738281 120.335938 284.6875 120.273438 284.648438 120.171875 284.59375 120.070313 284.589844 119.96875 284.589844 119.863281 284.558594 119.671875 284.632813 119.472656 284.71875 119.261719 284.796875 119.050781 284.921875 118.855469 285.070313 118.675781 285.195313 118.492188 285.394531 118.351563 285.59375 118.234375 285.761719 118.09375 286.003906 118.058594 286.230469 118.058594 286.347656 118.027344 286.472656 118.074219 286.582031 118.109375 286.664063 118.125 286.785156 118.191406 286.863281 118.261719 286.921875 118.328125 287.007813 118.417969 287.050781 118.519531 287.078125 118.605469 287.117188 118.746094 287.117188 118.890625 287.109375 118.964844 287.105469 119.0625 287.078125 119.152344 287.027344 119.214844 287.023438 119.324219 286.976563 119.394531 286.882813 119.359375 286.851563 119.351563 286.804688 119.328125 286.757813 119.285156 286.707031 119.285156 286.644531 119.25 286.675781 119.15625 286.722656 119.101563 286.738281 119L286.738281 118.972656C286.695313 118.941406 286.652344 118.917969 286.574219 118.890625 286.445313 118.851563 286.371094 118.847656 286.273438 118.847656 286.136719 118.816406 286.050781 118.863281 285.941406 118.894531 285.820313 118.914063 285.726563 118.976563 285.613281 119.039063 285.496094 119.074219 285.394531 119.175781 285.292969 119.261719 285.160156 119.347656 285.097656 119.449219 285.015625 119.5625 285.070313 119.695313 285.148438 119.816406 285.234375 119.917969 285.308594 120 285.429688 120.109375 285.554688 120.179688 285.664063 120.246094 285.832031 120.316406 286 120.367188 286.070313 120.386719 286.140625 120.40625 286.214844 120.425781 286.300781 120.378906 286.402344 120.375 286.507813 120.351563 286.6875 120.273438 286.875 120.261719 287.0625 120.226563 287.230469 120.171875 287.429688 120.160156 287.601563 120.132813 287.773438 120.078125 287.914063 120.085938 288.027344 120.078125 288.128906 120.195313 288.191406 120.328125 288.191406 120.460938 288.160156 120.628906 288.140625 120.757813 288.035156 120.847656 287.921875 120.910156 287.808594 120.992188 287.667969 121.007813 287.414063 121.007813 287.234375 121.042969 287.054688 121.058594 286.859375 121.042969 286.710938 121.09375 286.550781 121.113281 286.378906 121.113281 286.242188 121.152344 286.09375 121.175781 285.914063 121.195313 285.78125 121.234375 285.605469 121.269531 285.429688 121.304688 285.234375 121.347656 285.015625 121.402344 284.796875 121.4375 284.546875 121.511719 284.261719 121.574219zM286.152344 122.121094zM285.804688 117.511719L285.804688 117.511719M309.5625 131.628906L309.5625 132.328125C309.539063 133.027344 309.535156 134.03125 309.484375 135.265625L308.96875 135.359375C308.898438 132.742188 308.820313 130.570313 308.664063 128.839844L308.660156 128.699219C308.640625 128.449219 308.71875 128.273438 308.835938 128.132813 308.941406 127.96875 309.140625 127.898438 309.398438 127.847656 309.375 127.863281 309.417969 127.9375 309.429688 127.976563 309.429688 128.011719 309.5625 128.414063 309.796875 129.175781L309.496094 129.433594 309.503906 129.488281C309.539063 130.28125 309.5625 131.003906 309.5625 131.628906zM309.167969 127.300781zM309.273438 135.941406L309.273438 135.941406M305.390625 135.359375C305.292969 135.359375 305.289063 135.328125 305.289063 135.265625L305.289063 134.597656C305.261719 134.523438 305.324219 134.507813 305.390625 134.507813 305.8125 134.492188 306.253906 134.40625 306.632813 134.210938 306.46875 132.210938 306.289063 130.3125 306.066406 128.46875 306.261719 128.246094 306.53125 128.042969 306.816406 127.847656 306.847656 128.617188 306.914063 129.703125 306.996094 131.011719 307.035156 132.089844 307.105469 133.050781 307.117188 133.851563 307.109375 133.945313 307.078125 134.148438 307.003906 134.355469 306.929688 134.535156 306.835938 134.769531 306.722656 134.972656 306.582031 135.226563 306.144531 135.359375 305.390625 135.359375zM306.285156 127.300781zM306.746094 135.6875zM306.746094 135.941406L306.746094 135.941406" fill="#f3a203" />
  <path d="M 300.800781 135.359375 C 300.738281 135.359375 300.707031 135.328125 300.707031 135.265625 L 300.707031 134.597656 C 300.703125 134.523438 300.738281 134.507813 300.800781 134.507813 C 301.046875 134.492188 301.292969 134.46875 301.53125 134.390625 C 301.464844 134.277344 301.445313 134.171875 301.445313 134.046875 C 301.429688 133.707031 301.558594 133.375 301.789063 132.957031 C 301.984375 132.511719 302.289063 132.203125 302.613281 131.945313 C 302.929688 131.65625 303.246094 131.554688 303.539063 131.554688 C 303.652344 131.523438 303.777344 131.628906 303.878906 131.773438 C 303.953125 131.914063 304.078125 132.101563 304.175781 132.320313 C 304.246094 132.519531 304.363281 132.773438 304.453125 133.03125 C 304.527344 133.261719 304.640625 133.523438 304.746094 133.742188 C 304.835938 133.933594 304.960938 134.140625 305.082031 134.289063 C 305.175781 134.425781 305.339844 134.507813 305.492188 134.507813 C 305.546875 134.492188 305.617188 134.546875 305.617188 134.621094 L 305.617188 135.238281 C 305.613281 135.292969 305.578125 135.359375 305.492188 135.359375 C 305.082031 135.359375 304.773438 135.195313 304.46875 134.867188 L 304.332031 135.359375 C 303.605469 135.359375 302.976563 135.25 302.40625 135.03125 L 302.382813 135.027344 C 301.996094 135.136719 301.730469 135.246094 301.5 135.289063 C 301.269531 135.328125 301.039063 135.359375 300.800781 135.359375 Z M 303.5625 132.410156 C 303.261719 132.519531 302.984375 132.742188 302.671875 133.027344 C 302.339844 133.289063 302.148438 133.578125 302.035156 133.820313 C 302.507813 134.210938 303.261719 134.484375 304.257813 134.582031 C 304.078125 134.339844 303.953125 134.03125 303.824219 133.644531 C 303.6875 133.230469 303.609375 132.847656 303.5625 132.410156 Z M 302.984375 131.007813 Z M 303.726563 135.6875 Z M 303.507813 136.050781 L 303.507813 136.050781" fill="#f3a203" />
  <path d="M 297.5 135.359375 C 297.4375 135.359375 297.40625 135.328125 297.40625 135.265625 L 297.40625 134.597656 C 297.402344 134.523438 297.4375 134.507813 297.5 134.507813 C 297.773438 134.492188 298.007813 134.480469 298.207031 134.425781 C 298.402344 134.351563 298.554688 134.296875 298.664063 134.195313 C 298.753906 134.085938 298.949219 133.816406 299.191406 133.351563 L 299.386719 132.992188 C 299.425781 132.859375 299.566406 132.8125 299.730469 132.8125 C 299.824219 132.792969 299.925781 132.839844 300.003906 132.898438 C 299.84375 133.28125 299.664063 133.6875 299.464844 134.085938 C 299.699219 134.234375 299.957031 134.351563 300.164063 134.414063 C 300.355469 134.457031 300.609375 134.507813 300.867188 134.507813 C 300.90625 134.492188 300.964844 134.539063 300.964844 134.597656 L 300.964844 135.265625 C 300.941406 135.328125 300.929688 135.359375 300.867188 135.359375 C 300.152344 135.359375 299.589844 135.140625 299.101563 134.703125 L 298.917969 134.949219 C 298.835938 135.015625 298.660156 135.136719 298.378906 135.226563 C 298.074219 135.292969 297.804688 135.359375 297.5 135.359375 Z M 299.15625 132.265625 Z M 299.398438 135.6875 Z M 299.398438 135.941406 Z M 299.871094 131.324219 C 299.671875 131.554688 299.453125 131.851563 299.148438 132.144531 C 298.800781 131.855469 298.546875 131.640625 298.34375 131.417969 C 298.714844 131.015625 298.988281 130.761719 299.128906 130.597656 C 299.355469 130.84375 299.609375 131.097656 299.871094 131.324219 Z M 299.148438 132.253906 Z M 299.128906 130.324219 L 299.128906 130.324219" fill="#f3a203" />
  <path d="M 294.199219 135.359375 C 294.136719 135.359375 294.105469 135.328125 294.105469 135.265625 L 294.105469 134.597656 C 294.105469 134.523438 294.136719 134.507813 294.199219 134.507813 C 294.472656 134.492188 294.710938 134.480469 294.90625 134.425781 C 295.101563 134.351563 295.257813 134.296875 295.367188 134.195313 C 295.453125 134.085938 295.648438 133.816406 295.890625 133.351563 L 296.089844 132.992188 C 296.125 132.859375 296.269531 132.8125 296.429688 132.8125 C 296.523438 132.792969 296.625 132.839844 296.703125 132.898438 C 296.542969 133.28125 296.363281 133.6875 296.164063 134.085938 C 296.402344 134.234375 296.65625 134.351563 296.867188 134.414063 C 297.054688 134.457031 297.308594 134.507813 297.570313 134.507813 C 297.609375 134.492188 297.664063 134.539063 297.664063 134.597656 L 297.664063 135.265625 C 297.640625 135.328125 297.632813 135.359375 297.570313 135.359375 C 296.851563 135.359375 296.289063 135.140625 295.804688 134.703125 L 295.617188 134.949219 C 295.535156 135.015625 295.359375 135.136719 295.078125 135.226563 C 294.773438 135.292969 294.507813 135.359375 294.199219 135.359375 Z M 295.859375 132.265625 Z M 296.097656 135.6875 Z M 296.097656 135.941406 Z M 296.878906 136.8125 C 296.675781 137.046875 296.464844 137.335938 296.15625 137.632813 C 295.816406 137.355469 295.566406 137.136719 295.351563 136.898438 C 295.671875 136.558594 295.949219 136.296875 296.132813 136.078125 C 296.382813 136.351563 296.640625 136.601563 296.878906 136.8125 Z M 296.128906 136.898438 Z M 296.132813 135.96875 Z M 296.15625 137.742188 Z M 296.132813 135.804688 L 296.132813 135.804688" fill="#f3a203" />
  <path d="M 294.3125 135.359375 C 293.367188 135.359375 292.648438 135.179688 292.136719 134.8125 L 292.054688 134.753906 L 291.945313 134.8125 C 291.214844 135.160156 290.453125 135.359375 289.609375 135.359375 C 289.539063 135.359375 289.507813 135.324219 289.507813 135.253906 L 289.507813 134.609375 C 289.503906 134.523438 289.539063 134.507813 289.609375 134.507813 C 290.382813 134.492188 291.027344 134.417969 291.53125 134.238281 L 291.328125 133.980469 C 291.023438 133.554688 290.816406 133.273438 290.683594 133.113281 C 290.519531 132.9375 290.425781 132.832031 290.316406 132.746094 L 290.140625 132.867188 C 289.992188 132.71875 289.9375 132.554688 289.9375 132.367188 C 289.925781 132.101563 290.066406 131.890625 290.328125 131.71875 C 290.578125 131.527344 290.871094 131.410156 291.179688 131.316406 C 291.464844 131.199219 291.804688 131.171875 292.128906 131.171875 C 292.597656 131.167969 293.007813 131.304688 293.328125 131.570313 C 293.636719 131.835938 293.804688 132.171875 293.804688 132.570313 C 293.804688 132.78125 293.765625 132.992188 293.6875 133.1875 C 293.578125 133.375 293.503906 133.570313 293.378906 133.738281 C 293.222656 133.882813 293.054688 134.097656 292.800781 134.304688 C 293.113281 134.425781 293.617188 134.507813 294.3125 134.507813 C 294.382813 134.492188 294.421875 134.539063 294.421875 134.609375 L 294.421875 135.253906 C 294.414063 135.292969 294.386719 135.359375 294.3125 135.359375 Z M 293.007813 132.8125 C 293.003906 132.582031 292.929688 132.429688 292.773438 132.292969 C 292.589844 132.148438 292.410156 132.09375 292.160156 132.09375 C 291.683594 132.082031 291.265625 132.203125 290.84375 132.421875 C 291.097656 132.617188 291.46875 133.023438 291.914063 133.578125 C 291.992188 133.675781 292.089844 133.785156 292.191406 133.882813 C 292.410156 133.707031 292.636719 133.539063 292.785156 133.351563 C 292.90625 133.132813 293.007813 132.984375 293.007813 132.8125 Z M 291.96875 130.625 Z M 292.070313 135.6875 Z M 292.070313 135.941406 L 292.070313 135.941406" fill="#f3a203" />
  <path d="M 289.664063 135.359375 C 288.886719 135.359375 288.273438 135.097656 287.75 134.566406 C 287.277344 134.808594 286.734375 135.003906 286.074219 135.148438 C 285.386719 135.261719 284.691406 135.359375 283.917969 135.359375 C 283.03125 135.359375 282.363281 135.203125 281.890625 134.886719 C 281.386719 134.558594 281.183594 134.089844 281.183594 133.449219 C 281.15625 132.957031 281.234375 132.578125 281.335938 132.222656 L 281.734375 132.222656 C 281.714844 132.230469 281.71875 132.328125 281.710938 132.449219 C 281.699219 132.542969 281.695313 132.683594 281.695313 132.773438 C 281.664063 133.203125 281.777344 133.542969 281.941406 133.78125 C 282.09375 134.011719 282.367188 134.195313 282.726563 134.320313 C 283.078125 134.425781 283.5625 134.507813 284.152344 134.507813 C 284.761719 134.492188 285.445313 134.4375 286.148438 134.300781 C 286.835938 134.148438 287.296875 134.023438 287.488281 133.886719 C 287.550781 133.8125 287.652344 133.757813 287.703125 133.691406 C 287.753906 133.613281 287.816406 133.527344 287.886719 133.402344 L 288.046875 133.113281 C 288.101563 132.976563 288.230469 132.9375 288.394531 132.9375 C 288.472656 132.910156 288.59375 132.964844 288.664063 133.019531 C 288.4375 133.5 288.304688 133.859375 288.199219 134.039063 C 288.414063 134.179688 288.683594 134.324219 288.90625 134.398438 C 289.128906 134.457031 289.382813 134.507813 289.664063 134.507813 C 289.703125 134.492188 289.757813 134.539063 289.757813 134.597656 L 289.757813 135.265625 C 289.738281 135.328125 289.726563 135.359375 289.664063 135.359375 Z M 284.929688 131.945313 Z M 285.523438 135.941406 Z M 285.570313 130.441406 C 285.328125 130.664063 285.160156 130.878906 284.988281 130.996094 C 284.75 130.859375 284.570313 130.683594 284.355469 130.441406 C 284.5625 130.199219 284.78125 130.019531 284.957031 129.820313 C 285.074219 129.988281 285.300781 130.214844 285.570313 130.441406 Z M 284.785156 131.367188 C 284.625 131.570313 284.457031 131.804688 284.191406 132.058594 C 283.867188 131.796875 283.675781 131.625 283.515625 131.445313 C 283.691406 131.25 283.914063 131.050781 284.167969 130.761719 C 284.226563 130.847656 284.453125 131.050781 284.785156 131.367188 Z M 286.390625 131.226563 C 286.214844 131.425781 286.046875 131.675781 285.789063 131.914063 C 285.5 131.695313 285.308594 131.507813 285.125 131.300781 C 285.253906 131.160156 285.476563 130.945313 285.769531 130.613281 Z M 284.960938 131.914063 Z M 284.957031 129.550781 L 284.957031 129.550781" fill="#f3a203" />
</svg>