<svg width="274.053" height="231.24" viewBox="0 0 205.54 173.43" class="displayed_equation" xmlns="http://www.w3.org/2000/svg">
  <path d="M 476.914063 1258.909375 C 462.382813 1332.620313 408.007813 1435.003125 408.007813 1435.003125 C 408.007813 1435.003125 353.632813 1332.620313 339.101563 1258.909375 C 316.40625 1143.9875 407.265625 1134.690625 407.265625 1134.690625 L 408.789063 1134.690625 C 408.789063 1134.690625 499.648438 1143.9875 476.914063 1258.909375 Z M 476.914063 1258.909375" transform="matrix(.1 0 0 -.1 0 173.43)" fill="#ff2c08" stroke-width="9.706" stroke-linecap="round" stroke-linejoin="round" stroke="#000" stroke-miterlimit="10" />
  <path d="M 409.257813 746.33125 C 401.25 746.33125 394.804688 752.815625 394.804688 760.823438 L 394.804688 1187.971875 C 394.804688 1195.979688 401.25 1202.464063 409.257813 1202.464063 C 417.265625 1202.464063 423.75 1195.979688 423.75 1187.971875 L 423.75 760.823438 C 423.75 752.815625 417.304688 746.33125 409.257813 746.33125 Z M 409.257813 746.33125" transform="matrix(.1 0 0 -.1 0 173.43)" fill="#ff2c08" stroke-width="11.178" stroke-linecap="round" stroke-linejoin="round" stroke="#000" stroke-miterlimit="10" />
  <path d="M 430.742188 1172.776563 C 430.703125 1164.14375 423.671875 1157.190625 415.078125 1157.229688 L 403.28125 1157.26875 C 394.648438 1157.307813 387.695313 1164.339063 387.734375 1172.932813 L 387.851563 1203.167188 C 387.851563 1211.760938 394.882813 1218.753125 403.515625 1218.714063 L 415.234375 1218.714063 C 423.867188 1218.675 430.859375 1211.64375 430.820313 1203.010938 Z M 430.742188 1172.776563" transform="matrix(.1 0 0 -.1 0 173.43)" fill="#4d0d02" stroke-width="14.453" stroke-linecap="round" stroke-linejoin="round" stroke="#000" stroke-miterlimit="10" />
  <path d="M 57.792969 140.550781 L 22.964844 140.960938 C 20.167969 142.078125 18.511719 143.46875 18.511719 144.972656 L 18.511719 147.929688 C 18.511719 151.625 28.511719 154.621094 40.851563 154.621094 C 53.183594 154.621094 63.183594 151.625 63.183594 147.929688 L 63.183594 144.972656 C 63.183594 143.265625 61.1875 141.722656 57.792969 140.550781 Z M 57.792969 140.550781" fill="#ccc" />
  <path d="M 627.34375 298.323438 C 617.773438 313.089063 613.476563 311.8 591.992188 319.14375 C 570.507813 326.448438 524.6875 337.229688 410.039063 344.534375 C 295.351563 351.839063 237.304688 329.221875 210.976563 315.8625 C 184.6875 302.503125 185.117188 284.573438 185.117188 284.573438 C 185.117188 247.620313 285.117188 217.659375 408.515625 217.659375 C 531.835938 217.659375 631.835938 247.620313 631.835938 284.573438 Z M 627.34375 298.323438" transform="matrix(.1 0 0 -.1 0 173.43)" fill="#ebebeb" stroke-width="4.684" stroke-linecap="round" stroke-linejoin="round" stroke="#000" stroke-miterlimit="10" />
  <path d="M 577.929688 328.792188 L 229.648438 324.690625 C 201.679688 313.51875 185.117188 299.6125 185.117188 284.573438 L 185.117188 255.003125 C 185.117188 218.05 285.117188 188.089063 408.515625 188.089063 C 531.835938 188.089063 631.835938 218.05 631.835938 255.003125 L 631.835938 284.573438 C 631.835938 301.64375 611.875 317.073438 577.929688 328.792188 Z M 577.929688 328.792188" transform="matrix(.1 0 0 -.1 0 173.43)" fill="none" stroke-width="12.533" stroke-linecap="round" stroke-linejoin="round" stroke="#000" stroke-miterlimit="10" />
  <path d="M 535.195313 351.526563 C 475.664063 373.167188 441.289063 371.370313 441.289063 371.370313 L 375.859375 371.370313 C 375.859375 371.370313 341.523438 373.167188 281.992188 351.526563 C 207.578125 324.417188 210.78125 291.64375 210.78125 291.64375 C 210.78125 258.948438 299.296875 232.425 408.515625 232.425 C 517.695313 232.425 606.210938 258.948438 606.210938 291.64375 L 606.40625 291.64375 C 606.367188 291.64375 609.609375 324.417188 535.195313 351.526563 Z M 535.195313 351.526563" transform="matrix(.1 0 0 -.1 0 173.43)" fill="#ccc" stroke-width="12.533" stroke-linecap="round" stroke-linejoin="round" stroke="#000" stroke-miterlimit="10" />
  <path d="M 483.007813 488.479688 C 483.007813 501.057813 449.53125 511.253125 408.203125 511.253125 C 366.875 511.253125 333.398438 501.057813 333.398438 488.479688 C 333.398438 475.901563 366.875 465.70625 408.203125 465.70625 C 449.53125 465.70625 483.007813 475.901563 483.007813 488.479688 Z M 483.007813 488.479688" transform="matrix(.1 0 0 -.1 0 173.43)" fill="#ebebeb" stroke-width="4.684" stroke-linecap="round" stroke-linejoin="round" stroke="#000" stroke-miterlimit="10" />
  <path d="M 446.40625 488.479688 C 446.40625 482.034375 429.296875 476.839063 408.203125 476.839063 C 387.109375 476.839063 370 482.034375 370 488.479688 L 370 551.917188 L 444.179688 551.917188 Z M 446.40625 488.479688" transform="matrix(.1 0 0 -.1 0 173.43)" fill="#ebebeb" stroke-width="5.856" stroke-linecap="round" stroke-linejoin="round" stroke="#000" stroke-miterlimit="10" />
  <path d="M 657.460938 455.510938 L 652.734375 451.01875 L 641.132813 458.557813 L 632.734375 450.70625 L 623.046875 459.690625 L 612.734375 451.604688 C 612.734375 451.604688 486.914063 455.198438 481.835938 455.589063 L 481.953125 405.745313 C 494.0625 406.995313 612.734375 409.417188 612.734375 409.417188 L 623.046875 400.979688 L 632.734375 409.964063 L 641.132813 402.073438 L 652.734375 409.651563 L 657.460938 405.159375 L 672.695313 415.354688 L 672.695313 445.315625 Z M 657.460938 455.510938" transform="matrix(.1 0 0 -.1 0 173.43)" fill="#ebebeb" stroke-width="12.533" stroke-linecap="round" stroke-linejoin="round" stroke="#000" stroke-miterlimit="10" />
  <path d="M632.734375 451.604688L632.734375 409.729688M652.734375 451.604688L652.734375 409.729688" transform="matrix(.1 0 0 -.1 0 173.43)" fill="none" stroke-width="6.266" stroke-linecap="round" stroke-linejoin="round" stroke="#000" stroke-miterlimit="10" />
  <path d="M 483.007813 361.604688 C 483.007813 349.065625 449.53125 338.83125 408.203125 338.83125 C 366.875 338.83125 333.398438 349.065625 333.398438 361.604688 L 333.398438 488.479688 C 333.398438 475.901563 366.875 465.70625 408.203125 465.70625 C 449.53125 465.70625 483.007813 475.901563 483.007813 488.479688 Z M 483.007813 361.604688" transform="matrix(.1 0 0 -.1 0 173.43)" fill="#ccc" stroke-width="12.533" stroke-linecap="round" stroke-linejoin="round" stroke="#000" stroke-miterlimit="10" />
  <path d="M 468.398438 593.128125 C 468.398438 603.245313 441.445313 611.409375 408.203125 611.409375 C 374.960938 611.409375 348.046875 603.245313 348.046875 593.128125 C 348.046875 583.010938 374.960938 574.807813 408.203125 574.807813 C 441.445313 574.807813 468.398438 583.010938 468.398438 593.128125 Z M 468.398438 593.128125" transform="matrix(.1 0 0 -.1 0 173.43)" fill="#ebebeb" stroke-width="5.856" stroke-linecap="round" stroke-linejoin="round" stroke="#000" stroke-miterlimit="10" />
  <path d="M 468.398438 555.589063 C 468.398438 545.471875 441.445313 537.26875 408.203125 537.26875 C 374.960938 537.26875 348.007813 545.471875 348.007813 555.589063 L 348.007813 593.128125 C 348.007813 583.010938 374.960938 574.807813 408.203125 574.807813 C 441.445313 574.807813 468.398438 583.010938 468.398438 593.128125 Z M 468.398438 555.589063" transform="matrix(.1 0 0 -.1 0 173.43)" fill="#ebebeb" stroke-width="5.856" stroke-linecap="round" stroke-linejoin="round" stroke="#000" stroke-miterlimit="10" />
  <path d="M346.523438 593.128125L346.523438 555.589063C348.046875 549.885938 355.820313 542.542188 367.96875 539.182813L367.734375 508.010938C347.109375 504.065625 333.398438 496.8 333.398438 488.479688M483.007813 488.479688C483.007813 496.878125 469.257813 504.221875 448.515625 508.167188L447.34375 538.9875C460.273438 542.346875 468.398438 549.651563 469.882813 555.589063L469.882813 593.128125M346.757813 593.128125C346.757813 603.245313 374.960938 611.409375 408.203125 611.409375 441.445313 611.409375 469.882813 603.245313 469.882813 593.128125" transform="matrix(.1 0 0 -.1 0 173.43)" fill="none" stroke-width="12.533" stroke-linecap="round" stroke-linejoin="round" stroke="#000" stroke-miterlimit="10" />
  <path d="M 446.40625 598.440625 C 446.40625 592.034375 429.296875 586.8 408.203125 586.8 C 387.109375 586.8 370 592.034375 370 598.440625 L 370 1130.08125 L 444.179688 1130.08125 Z M 446.40625 598.440625" transform="matrix(.1 0 0 -.1 0 173.43)" fill="#ebebeb" stroke-width="12.533" stroke-linecap="round" stroke-linejoin="round" stroke="#000" stroke-miterlimit="10" />
  <path d="M 444.179688 1132.854688 C 444.179688 1139.417188 427.578125 1144.76875 407.070313 1144.76875 C 386.601563 1144.76875 370 1139.417188 370 1132.854688 C 370 1126.292188 386.601563 1120.940625 407.070313 1120.940625 C 427.578125 1120.940625 444.179688 1126.292188 444.179688 1132.854688 Z M 444.179688 1132.854688" transform="matrix(.1 0 0 -.1 0 173.43)" fill="#6c6c6c" stroke-width="8.355" stroke-linecap="round" stroke-linejoin="round" stroke="#000" stroke-miterlimit="10" />
  <path d="M 444.179688 1126.565625 L 444.179688 1132.854688 C 444.179688 1139.417188 427.578125 1144.729688 407.070313 1144.729688 C 386.5625 1144.729688 370 1139.417188 370 1132.854688 L 370 1125.042188" transform="matrix(.1 0 0 -.1 0 173.43)" fill="none" stroke-width="8.783" stroke-linecap="round" stroke-linejoin="round" stroke="#000" stroke-miterlimit="10" />
  <path d="M 1674.492188 1246.01875 C 1659.960938 1319.690625 1605.585938 1422.073438 1605.585938 1422.073438 C 1605.585938 1422.073438 1551.210938 1319.690625 1536.640625 1246.01875 C 1513.945313 1131.057813 1604.804688 1121.8 1604.804688 1121.8 L 1606.328125 1121.8 C 1606.328125 1121.8 1697.226563 1131.057813 1674.492188 1246.01875 Z M 1674.492188 1246.01875" transform="matrix(.1 0 0 -.1 0 173.43)" fill="#0f1" stroke-width="9.706" stroke-linecap="round" stroke-linejoin="round" stroke="#000" stroke-miterlimit="10" />
  <path d="M 1606.835938 733.401563 C 1598.828125 733.401563 1592.382813 739.925 1592.382813 747.89375 L 1592.382813 1175.08125 C 1592.382813 1183.05 1598.828125 1189.534375 1606.835938 1189.534375 C 1614.84375 1189.534375 1621.328125 1183.05 1621.328125 1175.08125 L 1621.328125 747.89375 C 1621.328125 739.885938 1614.84375 733.401563 1606.835938 733.401563 Z M 1606.835938 733.401563" transform="matrix(.1 0 0 -.1 0 173.43)" fill="#0f1" stroke-width="11.178" stroke-linecap="round" stroke-linejoin="round" stroke="#000" stroke-miterlimit="10" />
  <path d="M 1628.28125 1159.846875 C 1628.28125 1151.253125 1621.25 1144.260938 1612.617188 1144.339063 L 1600.859375 1144.378125 C 1592.226563 1144.378125 1585.273438 1151.409375 1585.273438 1160.042188 L 1585.390625 1190.2375 C 1585.429688 1198.870313 1592.421875 1205.823438 1601.054688 1205.823438 L 1612.8125 1205.784375 C 1621.445313 1205.745313 1628.4375 1198.714063 1628.359375 1190.120313 Z M 1628.28125 1159.846875" transform="matrix(.1 0 0 -.1 0 173.43)" fill="#004d05" stroke-width="14.453" stroke-linecap="round" stroke-linejoin="round" stroke="#000" stroke-miterlimit="10" />
  <path d="M 1075.703125 1259.925 C 1061.171875 1333.635938 1006.796875 1436.01875 1006.796875 1436.01875 C 1006.796875 1436.01875 952.421875 1333.635938 937.890625 1259.925 C 915.15625 1145.003125 1006.054688 1135.70625 1006.054688 1135.70625 L 1007.539063 1135.70625 C 1007.539063 1135.70625 1098.4375 1145.003125 1075.703125 1259.925 Z M 1075.703125 1259.925" transform="matrix(.1 0 0 -.1 0 173.43)" fill="#ff0700" stroke-width="9.706" stroke-linecap="round" stroke-linejoin="round" stroke="#000" stroke-miterlimit="10" />
  <path d="M 1008.046875 747.346875 C 1000.039063 747.346875 993.59375 753.83125 993.59375 761.839063 L 993.59375 1188.9875 C 993.59375 1196.995313 1000.039063 1203.440625 1008.046875 1203.440625 C 1016.054688 1203.440625 1022.539063 1196.995313 1022.539063 1188.9875 L 1022.539063 761.839063 C 1022.539063 753.792188 1016.054688 747.346875 1008.046875 747.346875 Z M 1008.046875 747.346875" transform="matrix(.1 0 0 -.1 0 173.43)" fill="#ff0700" stroke-width="11.178" stroke-linecap="round" stroke-linejoin="round" stroke="#000" stroke-miterlimit="10" />
  <path d="M 1029.492188 1173.792188 C 1029.492188 1165.198438 1022.460938 1158.20625 1013.828125 1158.245313 L 1002.070313 1158.284375 C 993.4375 1158.323438 986.484375 1165.354688 986.523438 1173.948438 L 986.601563 1204.182813 C 986.640625 1212.776563 993.671875 1219.76875 1002.304688 1219.76875 L 1014.023438 1219.690625 C 1022.65625 1219.651563 1029.648438 1212.659375 1029.609375 1204.026563 Z M 1029.492188 1173.792188" transform="matrix(.1 0 0 -.1 0 173.43)" fill="#4d0200" stroke-width="14.453" stroke-linecap="round" stroke-linejoin="round" stroke="#000" stroke-miterlimit="10" />
  <path d="M 177.546875 140.449219 L 142.722656 140.859375 C 139.925781 141.980469 138.269531 143.367188 138.269531 144.871094 L 138.269531 147.828125 C 138.269531 151.527344 148.269531 154.519531 160.605469 154.519531 C 172.941406 154.519531 182.941406 151.523438 182.941406 147.828125 L 182.941406 144.871094 C 182.941406 143.164063 180.945313 141.621094 177.546875 140.449219 Z M 177.546875 140.449219" fill="#ccc" />
  <path d="M 1824.882813 299.339063 C 1815.3125 314.104688 1811.054688 312.776563 1789.570313 320.120313 C 1768.085938 327.503125 1722.265625 338.245313 1607.578125 345.55 C 1492.929688 352.854688 1434.84375 330.2375 1408.554688 316.878125 C 1382.265625 303.51875 1382.695313 285.589063 1382.695313 285.589063 C 1382.695313 248.596875 1482.695313 218.675 1606.054688 218.675 C 1729.414063 218.675 1829.414063 248.635938 1829.414063 285.589063 Z M 1824.882813 299.339063" transform="matrix(.1 0 0 -.1 0 173.43)" fill="#ebebeb" stroke-width="4.684" stroke-linecap="round" stroke-linejoin="round" stroke="#000" stroke-miterlimit="10" />
  <path d="M 1775.46875 329.807813 L 1427.226563 325.70625 C 1399.257813 314.495313 1382.695313 300.628125 1382.695313 285.589063 L 1382.695313 256.01875 C 1382.695313 219.026563 1482.695313 189.104688 1606.054688 189.104688 C 1729.414063 189.104688 1829.414063 219.065625 1829.414063 256.01875 L 1829.414063 285.589063 C 1829.414063 302.659375 1809.453125 318.089063 1775.46875 329.807813 Z M 1775.46875 329.807813" transform="matrix(.1 0 0 -.1 0 173.43)" fill="none" stroke-width="12.533" stroke-linecap="round" stroke-linejoin="round" stroke="#000" stroke-miterlimit="10" />
  <path d="M 1732.773438 352.542188 C 1673.203125 374.182813 1638.828125 372.385938 1638.828125 372.385938 L 1573.4375 372.385938 C 1573.4375 372.385938 1539.0625 374.221875 1479.53125 352.542188 C 1405.117188 325.471875 1408.359375 292.659375 1408.359375 292.659375 C 1408.359375 259.964063 1496.875 233.440625 1606.054688 233.440625 C 1715.234375 233.440625 1803.789063 259.964063 1803.789063 292.659375 L 1803.945313 292.659375 C 1803.945313 292.659375 1807.1875 325.471875 1732.773438 352.542188 Z M 1732.773438 352.542188" transform="matrix(.1 0 0 -.1 0 173.43)" fill="#ccc" stroke-width="12.533" stroke-linecap="round" stroke-linejoin="round" stroke="#000" stroke-miterlimit="10" />
  <path d="M 1680.585938 489.495313 C 1680.585938 502.073438 1647.109375 512.26875 1605.78125 512.26875 C 1564.453125 512.26875 1530.976563 502.073438 1530.976563 489.495313 C 1530.976563 476.917188 1564.453125 466.721875 1605.78125 466.721875 C 1647.109375 466.721875 1680.585938 476.917188 1680.585938 489.495313 Z M 1680.585938 489.495313" transform="matrix(.1 0 0 -.1 0 173.43)" fill="#ebebeb" stroke-width="4.684" stroke-linecap="round" stroke-linejoin="round" stroke="#000" stroke-miterlimit="10" />
  <path d="M 1643.984375 489.495313 C 1643.984375 483.089063 1626.875 477.854688 1605.78125 477.854688 C 1584.648438 477.854688 1567.578125 483.089063 1567.578125 489.495313 L 1567.578125 552.932813 L 1641.757813 552.932813 Z M 1643.984375 489.495313" transform="matrix(.1 0 0 -.1 0 173.43)" fill="#ebebeb" stroke-width="5.856" stroke-linecap="round" stroke-linejoin="round" stroke="#000" stroke-miterlimit="10" />
  <path d="M 1855.039063 456.526563 L 1850.273438 452.034375 L 1838.710938 459.573438 L 1830.273438 451.682813 L 1820.625 460.70625 L 1810.3125 452.620313 C 1810.3125 452.620313 1684.492188 456.214063 1679.414063 456.604688 L 1679.492188 406.760938 C 1691.640625 408.010938 1810.3125 410.39375 1810.3125 410.39375 L 1820.625 401.995313 L 1830.273438 411.01875 L 1838.710938 403.089063 L 1850.273438 410.667188 L 1855.039063 406.175 L 1870.234375 416.370313 L 1870.234375 446.292188 Z M 1855.039063 456.526563" transform="matrix(.1 0 0 -.1 0 173.43)" fill="#ebebeb" stroke-width="12.533" stroke-linecap="round" stroke-linejoin="round" stroke="#000" stroke-miterlimit="10" />
  <path d="M1830.273438 452.620313L1830.273438 410.745313M1850.273438 452.620313L1850.273438 410.745313" transform="matrix(.1 0 0 -.1 0 173.43)" fill="none" stroke-width="6.266" stroke-linecap="round" stroke-linejoin="round" stroke="#000" stroke-miterlimit="10" />
  <path d="M 1680.585938 362.620313 C 1680.585938 350.042188 1647.109375 339.846875 1605.78125 339.846875 C 1564.453125 339.846875 1530.976563 350.042188 1530.976563 362.620313 L 1530.976563 489.495313 C 1530.976563 476.917188 1564.453125 466.721875 1605.78125 466.721875 C 1647.109375 466.721875 1680.585938 476.917188 1680.585938 489.495313 Z M 1680.585938 362.620313" transform="matrix(.1 0 0 -.1 0 173.43)" fill="#ccc" stroke-width="12.533" stroke-linecap="round" stroke-linejoin="round" stroke="#000" stroke-miterlimit="10" />
  <path d="M 1665.976563 594.14375 C 1665.976563 604.260938 1639.023438 612.464063 1605.78125 612.464063 C 1572.539063 612.464063 1545.625 604.260938 1545.625 594.14375 C 1545.625 584.026563 1572.539063 575.823438 1605.78125 575.823438 C 1639.023438 575.823438 1665.976563 584.026563 1665.976563 594.14375 Z M 1665.976563 594.14375" transform="matrix(.1 0 0 -.1 0 173.43)" fill="#ebebeb" stroke-width="5.856" stroke-linecap="round" stroke-linejoin="round" stroke="#000" stroke-miterlimit="10" />
  <path d="M 1665.976563 556.604688 C 1665.976563 546.4875 1639.023438 538.245313 1605.78125 538.245313 C 1572.539063 538.245313 1545.585938 546.4875 1545.585938 556.604688 L 1545.585938 594.14375 C 1545.585938 584.026563 1572.539063 575.823438 1605.78125 575.823438 C 1639.023438 575.823438 1665.976563 584.026563 1665.976563 594.14375 Z M 1665.976563 556.604688" transform="matrix(.1 0 0 -.1 0 173.43)" fill="#ebebeb" stroke-width="5.856" stroke-linecap="round" stroke-linejoin="round" stroke="#000" stroke-miterlimit="10" />
  <path d="M1544.101563 594.14375L1544.101563 556.604688C1545.625 550.901563 1553.398438 543.557813 1565.546875 540.198438L1565.3125 509.065625C1544.648438 505.042188 1530.9375 497.815625 1530.9375 489.45625M1680.585938 489.495313C1680.585938 497.89375 1666.835938 505.2375 1646.054688 509.14375L1644.921875 540.003125C1657.851563 543.3625 1665.976563 550.628125 1667.460938 556.604688L1667.460938 594.14375M1544.335938 594.14375C1544.335938 604.260938 1572.539063 612.425 1605.78125 612.425 1639.023438 612.425 1667.460938 604.260938 1667.460938 594.14375" transform="matrix(.1 0 0 -.1 0 173.43)" fill="none" stroke-width="12.533" stroke-linecap="round" stroke-linejoin="round" stroke="#000" stroke-miterlimit="10" />
  <path d="M 1643.984375 599.45625 C 1643.984375 593.05 1626.875 587.815625 1605.78125 587.815625 C 1584.648438 587.815625 1567.578125 593.05 1567.578125 599.45625 L 1567.578125 1131.096875 L 1641.757813 1131.096875 Z M 1643.984375 599.45625" transform="matrix(.1 0 0 -.1 0 173.43)" fill="#ebebeb" stroke-width="12.533" stroke-linecap="round" stroke-linejoin="round" stroke="#000" stroke-miterlimit="10" />
  <path d="M 1641.757813 1133.870313 C 1641.757813 1140.432813 1625.15625 1145.745313 1604.648438 1145.745313 C 1584.179688 1145.745313 1567.578125 1140.432813 1567.578125 1133.870313 C 1567.578125 1127.307813 1584.179688 1121.95625 1604.648438 1121.95625 C 1625.15625 1121.95625 1641.757813 1127.307813 1641.757813 1133.870313 Z M 1641.757813 1133.870313" transform="matrix(.1 0 0 -.1 0 173.43)" fill="#6c6c6c" stroke-width="8.355" stroke-linecap="round" stroke-linejoin="round" stroke="#000" stroke-miterlimit="10" />
  <path d="M 1641.757813 1127.58125 L 1641.757813 1133.83125 C 1641.757813 1140.432813 1625.15625 1145.745313 1604.648438 1145.745313 C 1584.140625 1145.745313 1567.578125 1140.432813 1567.578125 1133.83125 L 1567.578125 1126.057813" transform="matrix(.1 0 0 -.1 0 173.43)" fill="none" stroke-width="8.783" stroke-linecap="round" stroke-linejoin="round" stroke="#000" stroke-miterlimit="10" />
  <path d="M 117.671875 140.449219 L 82.84375 140.859375 C 80.046875 141.980469 78.390625 143.367188 78.390625 144.871094 L 78.390625 147.828125 C 78.390625 151.527344 88.390625 154.519531 100.730469 154.519531 C 113.0625 154.519531 123.0625 151.523438 123.0625 147.828125 L 123.0625 144.871094 C 123.0625 143.164063 121.066406 141.621094 117.671875 140.449219 Z M 117.671875 140.449219" fill="#ccc" />
  <path d="M 1226.132813 299.339063 C 1216.5625 314.104688 1212.265625 312.776563 1190.78125 320.120313 C 1169.296875 327.503125 1123.476563 338.245313 1008.828125 345.55 C 894.140625 352.854688 836.054688 330.2375 809.765625 316.878125 C 783.476563 303.51875 783.90625 285.589063 783.90625 285.589063 C 783.90625 248.596875 883.90625 218.675 1007.304688 218.675 C 1130.625 218.675 1230.625 248.635938 1230.625 285.589063 Z M 1226.132813 299.339063" transform="matrix(.1 0 0 -.1 0 173.43)" fill="#ebebeb" stroke-width="4.684" stroke-linecap="round" stroke-linejoin="round" stroke="#000" stroke-miterlimit="10" />
  <path d="M 1176.71875 329.807813 L 828.4375 325.70625 C 800.46875 314.495313 783.90625 300.628125 783.90625 285.589063 L 783.90625 256.01875 C 783.90625 219.026563 883.90625 189.104688 1007.304688 189.104688 C 1130.625 189.104688 1230.625 219.065625 1230.625 256.01875 L 1230.625 285.589063 C 1230.625 302.659375 1210.664063 318.089063 1176.71875 329.807813 Z M 1176.71875 329.807813" transform="matrix(.1 0 0 -.1 0 173.43)" fill="none" stroke-width="12.533" stroke-linecap="round" stroke-linejoin="round" stroke="#000" stroke-miterlimit="10" />
  <path d="M 1133.984375 352.542188 C 1074.453125 374.182813 1040.078125 372.385938 1040.078125 372.385938 L 974.648438 372.385938 C 974.648438 372.385938 940.3125 374.221875 880.78125 352.542188 C 806.367188 325.471875 809.570313 292.659375 809.570313 292.659375 C 809.570313 259.964063 898.085938 233.440625 1007.304688 233.440625 C 1116.445313 233.440625 1205 259.964063 1205 292.659375 L 1205.195313 292.659375 C 1205.15625 292.659375 1208.398438 325.471875 1133.984375 352.542188 Z M 1133.984375 352.542188" transform="matrix(.1 0 0 -.1 0 173.43)" fill="#ccc" stroke-width="12.533" stroke-linecap="round" stroke-linejoin="round" stroke="#000" stroke-miterlimit="10" />
  <path d="M 1081.796875 489.495313 C 1081.796875 502.073438 1048.28125 512.26875 1006.992188 512.26875 C 965.664063 512.26875 932.1875 502.073438 932.1875 489.495313 C 932.1875 476.917188 965.664063 466.721875 1006.992188 466.721875 C 1048.28125 466.721875 1081.796875 476.917188 1081.796875 489.495313 Z M 1081.796875 489.495313" transform="matrix(.1 0 0 -.1 0 173.43)" fill="#ebebeb" stroke-width="4.684" stroke-linecap="round" stroke-linejoin="round" stroke="#000" stroke-miterlimit="10" />
  <path d="M 1045.195313 489.495313 C 1045.195313 483.089063 1028.085938 477.854688 1006.992188 477.854688 C 985.898438 477.854688 968.789063 483.089063 968.789063 489.495313 L 968.789063 552.932813 L 1042.96875 552.932813 Z M 1045.195313 489.495313" transform="matrix(.1 0 0 -.1 0 173.43)" fill="#ebebeb" stroke-width="5.856" stroke-linecap="round" stroke-linejoin="round" stroke="#000" stroke-miterlimit="10" />
  <path d="M 1256.25 456.526563 L 1251.484375 452.034375 L 1239.921875 459.573438 L 1231.484375 451.682813 L 1221.835938 460.70625 L 1211.523438 452.620313 C 1211.523438 452.620313 1085.703125 456.214063 1080.625 456.604688 L 1080.703125 406.760938 C 1092.851563 408.010938 1211.523438 410.39375 1211.523438 410.39375 L 1221.835938 401.995313 L 1231.484375 410.979688 L 1239.921875 403.089063 L 1251.484375 410.667188 L 1256.25 406.175 L 1271.445313 416.370313 L 1271.445313 446.292188 Z M 1256.25 456.526563" transform="matrix(.1 0 0 -.1 0 173.43)" fill="#ebebeb" stroke-width="12.533" stroke-linecap="round" stroke-linejoin="round" stroke="#000" stroke-miterlimit="10" />
  <path d="M1231.484375 452.620313L1231.484375 410.745313M1251.484375 452.620313L1251.484375 410.745313" transform="matrix(.1 0 0 -.1 0 173.43)" fill="none" stroke-width="6.266" stroke-linecap="round" stroke-linejoin="round" stroke="#000" stroke-miterlimit="10" />
  <path d="M 1081.796875 362.620313 C 1081.796875 350.042188 1048.28125 339.846875 1006.992188 339.846875 C 965.664063 339.846875 932.1875 350.042188 932.1875 362.620313 L 932.1875 489.495313 C 932.1875 476.917188 965.664063 466.721875 1006.992188 466.721875 C 1048.320313 466.721875 1081.796875 476.917188 1081.796875 489.495313 Z M 1081.796875 362.620313" transform="matrix(.1 0 0 -.1 0 173.43)" fill="#ccc" stroke-width="12.533" stroke-linecap="round" stroke-linejoin="round" stroke="#000" stroke-miterlimit="10" />
  <path d="M 1067.1875 594.14375 C 1067.1875 604.260938 1040.234375 612.464063 1006.992188 612.464063 C 973.75 612.464063 946.835938 604.260938 946.835938 594.14375 C 946.835938 584.026563 973.75 575.823438 1006.992188 575.823438 C 1040.234375 575.823438 1067.1875 584.026563 1067.1875 594.14375 Z M 1067.1875 594.14375" transform="matrix(.1 0 0 -.1 0 173.43)" fill="#ebebeb" stroke-width="5.856" stroke-linecap="round" stroke-linejoin="round" stroke="#000" stroke-miterlimit="10" />
  <path d="M 1067.1875 556.604688 C 1067.1875 546.4875 1040.234375 538.245313 1006.992188 538.245313 C 973.75 538.245313 946.796875 546.4875 946.796875 556.604688 L 946.796875 594.14375 C 946.796875 584.026563 973.75 575.823438 1006.992188 575.823438 C 1040.234375 575.823438 1067.1875 584.026563 1067.1875 594.14375 Z M 1067.1875 556.604688" transform="matrix(.1 0 0 -.1 0 173.43)" fill="#ebebeb" stroke-width="5.856" stroke-linecap="round" stroke-linejoin="round" stroke="#000" stroke-miterlimit="10" />
  <path d="M945.3125 594.14375L945.3125 556.604688C946.835938 550.901563 954.609375 543.557813 966.757813 540.198438L966.523438 509.026563C945.859375 505.042188 932.148438 497.815625 932.148438 489.45625M1081.796875 489.495313C1081.796875 497.89375 1068.046875 505.2375 1047.304688 509.14375L1046.132813 540.003125C1059.0625 543.3625 1067.1875 550.628125 1068.671875 556.604688L1068.671875 594.14375M945.546875 594.14375C945.546875 604.260938 973.75 612.425 1006.992188 612.425 1040.234375 612.425 1068.671875 604.260938 1068.671875 594.14375" transform="matrix(.1 0 0 -.1 0 173.43)" fill="none" stroke-width="12.533" stroke-linecap="round" stroke-linejoin="round" stroke="#000" stroke-miterlimit="10" />
  <path d="M 1045.195313 599.45625 C 1045.195313 593.05 1028.085938 587.815625 1006.992188 587.815625 C 985.898438 587.815625 968.789063 593.05 968.789063 599.45625 L 968.789063 1131.096875 L 1042.96875 1131.096875 Z M 1045.195313 599.45625" transform="matrix(.1 0 0 -.1 0 173.43)" fill="#ebebeb" stroke-width="12.533" stroke-linecap="round" stroke-linejoin="round" stroke="#000" stroke-miterlimit="10" />
  <path d="M 1042.96875 1133.870313 C 1042.96875 1140.432813 1026.367188 1145.745313 1005.859375 1145.745313 C 985.390625 1145.745313 968.789063 1140.432813 968.789063 1133.870313 C 968.789063 1127.307813 985.390625 1121.95625 1005.859375 1121.95625 C 1026.367188 1121.95625 1042.96875 1127.307813 1042.96875 1133.870313 Z M 1042.96875 1133.870313" transform="matrix(.1 0 0 -.1 0 173.43)" fill="#6c6c6c" stroke-width="8.355" stroke-linecap="round" stroke-linejoin="round" stroke="#000" stroke-miterlimit="10" />
  <path d="M 1042.96875 1127.58125 L 1042.96875 1133.83125 C 1042.96875 1140.432813 1026.367188 1145.745313 1005.859375 1145.745313 C 985.351563 1145.745313 968.789063 1140.432813 968.789063 1133.83125 L 968.789063 1126.057813" transform="matrix(.1 0 0 -.1 0 173.43)" fill="none" stroke-width="8.783" stroke-linecap="round" stroke-linejoin="round" stroke="#000" stroke-miterlimit="10" />
  <path d="M41.683594 21.566406C41.058594 22.25 40.3125 22.648438 39.285156 22.648438 37.710938 22.648438 36.617188 21.691406 36.617188 19.460938 36.617188 17.472656 37.523438 16.246094 39.128906 16.246094 40.277344 16.246094 41.070313 16.859375 41.316406 18.320313L41.695313 18.320313 41.695313 15.765625 41.359375 15.765625C41.226563 15.988281 41.160156 16.167969 40.980469 16.167969 40.703125 16.167969 40.289063 15.765625 39.117188 15.765625 36.976563 15.765625 35.457031 17.140625 35.457031 19.570313 35.457031 21.746094 36.664063 23.351563 38.960938 23.351563 40.421875 23.351563 41.347656 22.703125 41.953125 21.800781L41.683594 21.566406M45.835938 22.539063C45.902344 23.027344 46.015625 23.285156 46.507813 23.285156 47.074219 23.285156 47.34375 23.050781 47.710938 22.515625L47.542969 22.339844C47.386719 22.503906 47.230469 22.617188 47.019531 22.617188 46.785156 22.617188 46.683594 22.527344 46.683594 22.070313L46.683594 19.539063C46.683594 18.378906 46.226563 17.820313 45.011719 17.820313 43.796875 17.820313 43.046875 18.421875 43.046875 19.046875 43.046875 19.414063 43.292969 19.582031 43.515625 19.582031 43.828125 19.582031 44.007813 19.414063 44.007813 19.070313 44.007813 18.398438 44.117188 18.164063 44.753906 18.164063 45.421875 18.164063 45.757813 18.53125 45.757813 19.503906L45.757813 19.992188C44.796875 20.296875 42.824219 20.585938 42.824219 22.058594 42.824219 22.773438 43.292969 23.308594 44.152344 23.308594 44.867188 23.308594 45.265625 22.996094 45.792969 22.539063zM45.757813 22.203125C45.378906 22.515625 44.976563 22.695313 44.609375 22.695313 44.128906 22.695313 43.804688 22.347656 43.804688 21.789063 43.804688 20.921875 44.742188 20.617188 45.757813 20.363281L45.757813 22.203125M101.507813 18.019531L101.429688 15.789063 101.140625 15.789063C101.085938 16.023438 100.972656 16.113281 100.796875 16.113281 100.527344 16.113281 100.28125 15.765625 99.265625 15.765625 98.105469 15.777344 97.148438 16.402344 97.148438 17.574219 97.148438 18.746094 98.050781 19.28125 98.941406 19.792969 99.859375 20.316406 100.796875 20.707031 100.796875 21.691406 100.796875 22.539063 100.269531 22.875 99.433594 22.875 98.296875 22.886719 97.726563 22.527344 97.335938 20.988281L96.992188 20.988281 97.089844 23.398438 97.4375 23.398438C97.449219 23.175781 97.582031 23.027344 97.738281 23.027344 97.996094 23.027344 98.429688 23.363281 99.589844 23.363281 100.882813 23.363281 101.855469 22.660156 101.855469 21.367188 101.855469 20.039063 100.75 19.539063 99.757813 18.980469 98.921875 18.5 98.117188 18.097656 98.117188 17.261719 98.117188 16.570313 98.554688 16.214844 99.3125 16.214844 100.4375 16.203125 100.859375 16.792969 101.171875 18.019531L101.507813 18.019531M104.34375 17.851563L104.074219 17.851563 102.691406 18.1875 102.691406 18.5C102.691406 18.5 102.8125 18.476563 103.035156 18.476563 103.4375 18.476563 103.4375 18.679688 103.4375 19.078125L103.4375 22.148438C103.4375 22.773438 103.359375 22.90625 102.621094 22.90625L102.621094 23.230469 105.414063 23.230469 105.414063 22.90625C104.578125 22.90625 104.363281 22.796875 104.363281 22.09375L104.363281 19.550781C104.632813 19.101563 104.988281 18.632813 105.246094 18.632813 105.378906 18.632813 105.601563 19.011719 105.96875 19.011719 106.214844 19.011719 106.460938 18.835938 106.460938 18.410156 106.460938 18.03125 106.25 17.785156 105.8125 17.785156 105.277344 17.785156 104.945313 18.175781 104.375 19.003906L104.34375 19.003906 104.34375 17.851563M159.863281 19.324219C160.789063 19.078125 161.445313 18.632813 161.445313 17.640625 161.445313 16.535156 160.699219 15.898438 158.714844 15.898438L155.703125 15.898438 155.703125 16.234375C156.605469 16.234375 156.785156 16.359375 156.785156 17.25L156.785156 21.8125C156.785156 22.738281 156.605469 22.894531 155.703125 22.894531L155.703125 23.230469 159.136719 23.230469C160.800781 23.230469 161.804688 22.527344 161.804688 21.253906 161.804688 20.039063 160.8125 19.527344 159.863281 19.371094zM157.8125 19.191406L157.8125 16.367188C158.03125 16.347656 158.265625 16.335938 158.480469 16.335938 159.839844 16.335938 160.34375 16.859375 160.34375 17.730469 160.34375 18.746094 159.917969 19.191406 158.570313 19.191406zM157.8125 19.660156L158.589844 19.660156C159.628906 19.660156 160.632813 20.007813 160.632813 21.277344 160.632813 22.695313 159.574219 22.816406 158.613281 22.816406 158.34375 22.816406 158.078125 22.808594 157.8125 22.78125L157.8125 19.660156M165.636719 22.539063C165.703125 23.027344 165.8125 23.285156 166.304688 23.285156 166.875 23.285156 167.140625 23.050781 167.511719 22.515625L167.34375 22.339844C167.1875 22.503906 167.03125 22.617188 166.820313 22.617188 166.585938 22.617188 166.484375 22.527344 166.484375 22.070313L166.484375 19.539063C166.484375 18.378906 166.027344 17.820313 164.8125 17.820313 163.59375 17.820313 162.847656 18.421875 162.847656 19.046875 162.847656 19.414063 163.09375 19.582031 163.316406 19.582031 163.628906 19.582031 163.804688 19.414063 163.804688 19.070313 163.804688 18.398438 163.917969 18.164063 164.554688 18.164063 165.222656 18.164063 165.558594 18.53125 165.558594 19.503906L165.558594 19.992188C164.597656 20.296875 162.621094 20.585938 162.621094 22.058594 162.621094 22.773438 163.09375 23.308594 163.953125 23.308594 164.664063 23.308594 165.066406 22.996094 165.59375 22.539063zM165.558594 22.203125C165.179688 22.515625 164.777344 22.695313 164.410156 22.695313 163.929688 22.695313 163.605469 22.347656 163.605469 21.789063 163.605469 20.921875 164.542969 20.617188 165.558594 20.363281L165.558594 22.203125" />
</svg>